<mxfile host="65bd71144e" pages="7">
    <diagram id="mxV5pmJYf2iS9ii8aje2" name="Main">
        <mxGraphModel dx="522" dy="518" grid="1" gridSize="10" guides="1" tooltips="1" connect="1" arrows="1" fold="1" page="1" pageScale="1" pageWidth="827" pageHeight="1169" math="0" shadow="0">
            <root>
                <mxCell id="0"/>
                <mxCell id="1" parent="0"/>
                <mxCell id="2VMIThKzxTiYkQfdELLv-4" value="" style="edgeStyle=orthogonalEdgeStyle;rounded=0;orthogonalLoop=1;jettySize=auto;html=1;" parent="1" source="2VMIThKzxTiYkQfdELLv-1" target="2VMIThKzxTiYkQfdELLv-2" edge="1">
                    <mxGeometry relative="1" as="geometry"/>
                </mxCell>
                <mxCell id="2VMIThKzxTiYkQfdELLv-1" value="Start" style="rounded=1;whiteSpace=wrap;html=1;" parent="1" vertex="1">
                    <mxGeometry x="365" y="30" width="120" height="60" as="geometry"/>
                </mxCell>
                <mxCell id="2VMIThKzxTiYkQfdELLv-5" value="" style="edgeStyle=orthogonalEdgeStyle;rounded=0;orthogonalLoop=1;jettySize=auto;html=1;" parent="1" source="2VMIThKzxTiYkQfdELLv-2" target="2VMIThKzxTiYkQfdELLv-3" edge="1">
                    <mxGeometry relative="1" as="geometry"/>
                </mxCell>
                <mxCell id="2VMIThKzxTiYkQfdELLv-2" value="string password" style="rounded=0;whiteSpace=wrap;html=1;" parent="1" vertex="1">
                    <mxGeometry x="365" y="130" width="120" height="60" as="geometry"/>
                </mxCell>
                <mxCell id="2VMIThKzxTiYkQfdELLv-10" value="" style="edgeStyle=orthogonalEdgeStyle;rounded=0;orthogonalLoop=1;jettySize=auto;html=1;" parent="1" source="2VMIThKzxTiYkQfdELLv-3" target="2VMIThKzxTiYkQfdELLv-6" edge="1">
                    <mxGeometry relative="1" as="geometry"/>
                </mxCell>
                <mxCell id="2VMIThKzxTiYkQfdELLv-3" value="string user" style="rounded=0;whiteSpace=wrap;html=1;" parent="1" vertex="1">
                    <mxGeometry x="365" y="230" width="120" height="60" as="geometry"/>
                </mxCell>
                <mxCell id="2VMIThKzxTiYkQfdELLv-11" value="" style="edgeStyle=orthogonalEdgeStyle;rounded=0;orthogonalLoop=1;jettySize=auto;html=1;" parent="1" source="2VMIThKzxTiYkQfdELLv-6" target="2VMIThKzxTiYkQfdELLv-7" edge="1">
                    <mxGeometry relative="1" as="geometry"/>
                </mxCell>
                <mxCell id="2VMIThKzxTiYkQfdELLv-6" value="Write Enter User name :&amp;nbsp;" style="shape=parallelogram;perimeter=parallelogramPerimeter;whiteSpace=wrap;html=1;fixedSize=1;" parent="1" vertex="1">
                    <mxGeometry x="323" y="330" width="205" height="60" as="geometry"/>
                </mxCell>
                <mxCell id="2VMIThKzxTiYkQfdELLv-12" value="" style="edgeStyle=orthogonalEdgeStyle;rounded=0;orthogonalLoop=1;jettySize=auto;html=1;" parent="1" source="2VMIThKzxTiYkQfdELLv-7" target="2VMIThKzxTiYkQfdELLv-8" edge="1">
                    <mxGeometry relative="1" as="geometry"/>
                </mxCell>
                <mxCell id="2VMIThKzxTiYkQfdELLv-7" value="Read user" style="shape=parallelogram;perimeter=parallelogramPerimeter;whiteSpace=wrap;html=1;fixedSize=1;" parent="1" vertex="1">
                    <mxGeometry x="320" y="430" width="210" height="50" as="geometry"/>
                </mxCell>
                <mxCell id="2VMIThKzxTiYkQfdELLv-13" value="" style="edgeStyle=orthogonalEdgeStyle;rounded=0;orthogonalLoop=1;jettySize=auto;html=1;" parent="1" source="2VMIThKzxTiYkQfdELLv-8" target="2VMIThKzxTiYkQfdELLv-9" edge="1">
                    <mxGeometry relative="1" as="geometry"/>
                </mxCell>
                <mxCell id="2VMIThKzxTiYkQfdELLv-8" value="Write Enter Password :&amp;nbsp;" style="shape=parallelogram;perimeter=parallelogramPerimeter;whiteSpace=wrap;html=1;fixedSize=1;" parent="1" vertex="1">
                    <mxGeometry x="323" y="510" width="205" height="60" as="geometry"/>
                </mxCell>
                <mxCell id="2VMIThKzxTiYkQfdELLv-16" value="" style="edgeStyle=orthogonalEdgeStyle;rounded=0;orthogonalLoop=1;jettySize=auto;html=1;" parent="1" source="2VMIThKzxTiYkQfdELLv-9" target="2VMIThKzxTiYkQfdELLv-14" edge="1">
                    <mxGeometry relative="1" as="geometry"/>
                </mxCell>
                <mxCell id="2VMIThKzxTiYkQfdELLv-9" value="Read password" style="shape=parallelogram;perimeter=parallelogramPerimeter;whiteSpace=wrap;html=1;fixedSize=1;" parent="1" vertex="1">
                    <mxGeometry x="320" y="610" width="210" height="50" as="geometry"/>
                </mxCell>
                <mxCell id="2VMIThKzxTiYkQfdELLv-17" value="" style="edgeStyle=orthogonalEdgeStyle;rounded=0;orthogonalLoop=1;jettySize=auto;html=1;" parent="1" source="2VMIThKzxTiYkQfdELLv-14" target="2VMIThKzxTiYkQfdELLv-15" edge="1">
                    <mxGeometry relative="1" as="geometry"/>
                </mxCell>
                <mxCell id="2VMIThKzxTiYkQfdELLv-25" style="edgeStyle=orthogonalEdgeStyle;rounded=0;orthogonalLoop=1;jettySize=auto;html=1;entryX=0;entryY=0.5;entryDx=0;entryDy=0;" parent="1" source="2VMIThKzxTiYkQfdELLv-14" target="2VMIThKzxTiYkQfdELLv-23" edge="1">
                    <mxGeometry relative="1" as="geometry"/>
                </mxCell>
                <mxCell id="2VMIThKzxTiYkQfdELLv-14" value="if user == &quot;admin&quot;" style="rhombus;whiteSpace=wrap;html=1;" parent="1" vertex="1">
                    <mxGeometry x="358" y="700" width="135" height="80" as="geometry"/>
                </mxCell>
                <mxCell id="2VMIThKzxTiYkQfdELLv-19" value="" style="edgeStyle=orthogonalEdgeStyle;rounded=0;orthogonalLoop=1;jettySize=auto;html=1;" parent="1" source="2VMIThKzxTiYkQfdELLv-15" target="2VMIThKzxTiYkQfdELLv-18" edge="1">
                    <mxGeometry relative="1" as="geometry"/>
                </mxCell>
                <mxCell id="2VMIThKzxTiYkQfdELLv-26" style="edgeStyle=orthogonalEdgeStyle;rounded=0;orthogonalLoop=1;jettySize=auto;html=1;entryX=0;entryY=0.5;entryDx=0;entryDy=0;" parent="1" source="2VMIThKzxTiYkQfdELLv-15" target="2VMIThKzxTiYkQfdELLv-22" edge="1">
                    <mxGeometry relative="1" as="geometry"/>
                </mxCell>
                <mxCell id="2VMIThKzxTiYkQfdELLv-15" value="if password == &quot;admin&quot;" style="rhombus;whiteSpace=wrap;html=1;" parent="1" vertex="1">
                    <mxGeometry x="352.13" y="820" width="146.75" height="100" as="geometry"/>
                </mxCell>
                <mxCell id="2VMIThKzxTiYkQfdELLv-21" value="" style="edgeStyle=orthogonalEdgeStyle;rounded=0;orthogonalLoop=1;jettySize=auto;html=1;" parent="1" source="2VMIThKzxTiYkQfdELLv-18" target="2VMIThKzxTiYkQfdELLv-20" edge="1">
                    <mxGeometry relative="1" as="geometry"/>
                </mxCell>
                <mxCell id="2VMIThKzxTiYkQfdELLv-35" style="edgeStyle=orthogonalEdgeStyle;rounded=0;orthogonalLoop=1;jettySize=auto;html=1;entryX=0;entryY=0.5;entryDx=0;entryDy=0;" parent="1" source="2VMIThKzxTiYkQfdELLv-18" target="2VMIThKzxTiYkQfdELLv-34" edge="1">
                    <mxGeometry relative="1" as="geometry"/>
                </mxCell>
                <mxCell id="2VMIThKzxTiYkQfdELLv-18" value="While true" style="rhombus;whiteSpace=wrap;html=1;" parent="1" vertex="1">
                    <mxGeometry x="365" y="970" width="120" height="110" as="geometry"/>
                </mxCell>
                <mxCell id="2VMIThKzxTiYkQfdELLv-20" value="menu" style="shape=process;whiteSpace=wrap;html=1;backgroundOutline=1;" parent="1" vertex="1">
                    <mxGeometry x="365.51" y="1130" width="120" height="60" as="geometry"/>
                </mxCell>
                <mxCell id="2VMIThKzxTiYkQfdELLv-22" value="Write Password incorrect" style="shape=parallelogram;perimeter=parallelogramPerimeter;whiteSpace=wrap;html=1;fixedSize=1;" parent="1" vertex="1">
                    <mxGeometry x="575" y="840" width="170" height="60" as="geometry"/>
                </mxCell>
                <mxCell id="2VMIThKzxTiYkQfdELLv-36" style="edgeStyle=orthogonalEdgeStyle;rounded=0;orthogonalLoop=1;jettySize=auto;html=1;entryX=0.5;entryY=0;entryDx=0;entryDy=0;" parent="1" source="2VMIThKzxTiYkQfdELLv-23" target="2VMIThKzxTiYkQfdELLv-34" edge="1">
                    <mxGeometry relative="1" as="geometry"/>
                </mxCell>
                <mxCell id="2VMIThKzxTiYkQfdELLv-23" value="Write User incorrect" style="shape=parallelogram;perimeter=parallelogramPerimeter;whiteSpace=wrap;html=1;fixedSize=1;" parent="1" vertex="1">
                    <mxGeometry x="590" y="710" width="140" height="60" as="geometry"/>
                </mxCell>
                <mxCell id="2VMIThKzxTiYkQfdELLv-31" value="" style="endArrow=classic;html=1;rounded=0;exitX=0.5;exitY=1;exitDx=0;exitDy=0;entryX=0;entryY=0.5;entryDx=0;entryDy=0;" parent="1" source="2VMIThKzxTiYkQfdELLv-20" target="2VMIThKzxTiYkQfdELLv-18" edge="1">
                    <mxGeometry width="50" height="50" relative="1" as="geometry">
                        <mxPoint x="490" y="1070" as="sourcePoint"/>
                        <mxPoint x="540" y="1020" as="targetPoint"/>
                        <Array as="points">
                            <mxPoint x="426" y="1220"/>
                            <mxPoint x="310" y="1220"/>
                            <mxPoint x="310" y="1025"/>
                        </Array>
                    </mxGeometry>
                </mxCell>
                <mxCell id="2VMIThKzxTiYkQfdELLv-32" value="End" style="rounded=1;whiteSpace=wrap;html=1;" parent="1" vertex="1">
                    <mxGeometry x="720" y="1260" width="120" height="60" as="geometry"/>
                </mxCell>
                <mxCell id="2VMIThKzxTiYkQfdELLv-38" style="edgeStyle=orthogonalEdgeStyle;rounded=0;orthogonalLoop=1;jettySize=auto;html=1;" parent="1" source="2VMIThKzxTiYkQfdELLv-34" target="2VMIThKzxTiYkQfdELLv-32" edge="1">
                    <mxGeometry relative="1" as="geometry"/>
                </mxCell>
                <mxCell id="2VMIThKzxTiYkQfdELLv-34" value="" style="ellipse;whiteSpace=wrap;html=1;" parent="1" vertex="1">
                    <mxGeometry x="755" y="1005" width="50" height="40" as="geometry"/>
                </mxCell>
                <mxCell id="2VMIThKzxTiYkQfdELLv-37" value="" style="endArrow=none;html=1;rounded=0;exitX=1;exitY=0.5;exitDx=0;exitDy=0;" parent="1" source="2VMIThKzxTiYkQfdELLv-22" edge="1">
                    <mxGeometry width="50" height="50" relative="1" as="geometry">
                        <mxPoint x="490" y="1050" as="sourcePoint"/>
                        <mxPoint x="780" y="870" as="targetPoint"/>
                    </mxGeometry>
                </mxCell>
                <mxCell id="2" value="false" style="text;html=1;align=center;verticalAlign=middle;resizable=0;points=[];autosize=1;strokeColor=none;fillColor=none;" vertex="1" parent="1">
                    <mxGeometry x="480" y="720" width="40" height="20" as="geometry"/>
                </mxCell>
                <mxCell id="3" value="true" style="text;html=1;align=center;verticalAlign=middle;resizable=0;points=[];autosize=1;strokeColor=none;fillColor=none;" vertex="1" parent="1">
                    <mxGeometry x="380" y="780" width="40" height="20" as="geometry"/>
                </mxCell>
                <mxCell id="4" value="false" style="text;html=1;align=center;verticalAlign=middle;resizable=0;points=[];autosize=1;strokeColor=none;fillColor=none;" vertex="1" parent="1">
                    <mxGeometry x="490" y="840" width="40" height="20" as="geometry"/>
                </mxCell>
                <mxCell id="5" value="true" style="text;html=1;align=center;verticalAlign=middle;resizable=0;points=[];autosize=1;strokeColor=none;fillColor=none;" vertex="1" parent="1">
                    <mxGeometry x="390" y="920" width="40" height="20" as="geometry"/>
                </mxCell>
                <mxCell id="6" value="true" style="text;html=1;align=center;verticalAlign=middle;resizable=0;points=[];autosize=1;strokeColor=none;fillColor=none;" vertex="1" parent="1">
                    <mxGeometry x="420" y="1080" width="40" height="20" as="geometry"/>
                </mxCell>
                <mxCell id="7" value="false" style="text;html=1;align=center;verticalAlign=middle;resizable=0;points=[];autosize=1;strokeColor=none;fillColor=none;" vertex="1" parent="1">
                    <mxGeometry x="470" y="1000" width="40" height="20" as="geometry"/>
                </mxCell>
            </root>
        </mxGraphModel>
    </diagram>
    <diagram id="HC6gVg2ChjV3dtRu_uli" name="menu">
        <mxGraphModel dx="1205" dy="1195" grid="1" gridSize="10" guides="1" tooltips="1" connect="1" arrows="1" fold="1" page="1" pageScale="1" pageWidth="827" pageHeight="1169" math="0" shadow="0">
            <root>
                <mxCell id="0"/>
                <mxCell id="1" parent="0"/>
                <mxCell id="0oFu5oXA6grgBL6cNLWf-3" value="" style="edgeStyle=orthogonalEdgeStyle;rounded=0;orthogonalLoop=1;jettySize=auto;html=1;" parent="1" source="0oFu5oXA6grgBL6cNLWf-1" target="0oFu5oXA6grgBL6cNLWf-2" edge="1">
                    <mxGeometry relative="1" as="geometry"/>
                </mxCell>
                <mxCell id="0oFu5oXA6grgBL6cNLWf-1" value="menu" style="rounded=1;whiteSpace=wrap;html=1;" parent="1" vertex="1">
                    <mxGeometry x="390" y="30" width="120" height="60" as="geometry"/>
                </mxCell>
                <mxCell id="0oFu5oXA6grgBL6cNLWf-5" value="" style="edgeStyle=orthogonalEdgeStyle;rounded=0;orthogonalLoop=1;jettySize=auto;html=1;" parent="1" source="0oFu5oXA6grgBL6cNLWf-2" target="0oFu5oXA6grgBL6cNLWf-4" edge="1">
                    <mxGeometry relative="1" as="geometry"/>
                </mxCell>
                <mxCell id="0oFu5oXA6grgBL6cNLWf-2" value="string filename = &quot;Receip.txt&quot;" style="rounded=0;whiteSpace=wrap;html=1;" parent="1" vertex="1">
                    <mxGeometry x="350" y="120" width="200" height="60" as="geometry"/>
                </mxCell>
                <mxCell id="0oFu5oXA6grgBL6cNLWf-7" value="" style="edgeStyle=orthogonalEdgeStyle;rounded=0;orthogonalLoop=1;jettySize=auto;html=1;" parent="1" source="0oFu5oXA6grgBL6cNLWf-4" target="0oFu5oXA6grgBL6cNLWf-6" edge="1">
                    <mxGeometry relative="1" as="geometry"/>
                </mxCell>
                <mxCell id="0oFu5oXA6grgBL6cNLWf-4" value="ofstream OutFile" style="rounded=0;whiteSpace=wrap;html=1;" parent="1" vertex="1">
                    <mxGeometry x="390" y="220" width="120" height="60" as="geometry"/>
                </mxCell>
                <mxCell id="0oFu5oXA6grgBL6cNLWf-9" value="" style="edgeStyle=orthogonalEdgeStyle;rounded=0;orthogonalLoop=1;jettySize=auto;html=1;" parent="1" source="0oFu5oXA6grgBL6cNLWf-6" target="0oFu5oXA6grgBL6cNLWf-8" edge="1">
                    <mxGeometry relative="1" as="geometry"/>
                </mxCell>
                <mxCell id="0oFu5oXA6grgBL6cNLWf-6" value="ifstream InFile" style="rounded=0;whiteSpace=wrap;html=1;" parent="1" vertex="1">
                    <mxGeometry x="390" y="310" width="120" height="60" as="geometry"/>
                </mxCell>
                <mxCell id="0oFu5oXA6grgBL6cNLWf-11" value="" style="edgeStyle=orthogonalEdgeStyle;rounded=0;orthogonalLoop=1;jettySize=auto;html=1;" parent="1" source="0oFu5oXA6grgBL6cNLWf-8" target="0oFu5oXA6grgBL6cNLWf-10" edge="1">
                    <mxGeometry relative="1" as="geometry"/>
                </mxCell>
                <mxCell id="0oFu5oXA6grgBL6cNLWf-8" value="int choice" style="rounded=0;whiteSpace=wrap;html=1;" parent="1" vertex="1">
                    <mxGeometry x="390" y="405" width="120" height="60" as="geometry"/>
                </mxCell>
                <mxCell id="0oFu5oXA6grgBL6cNLWf-16" value="" style="edgeStyle=orthogonalEdgeStyle;rounded=0;orthogonalLoop=1;jettySize=auto;html=1;" parent="1" source="0oFu5oXA6grgBL6cNLWf-10" target="0oFu5oXA6grgBL6cNLWf-14" edge="1">
                    <mxGeometry relative="1" as="geometry"/>
                </mxCell>
                <mxCell id="0oFu5oXA6grgBL6cNLWf-10" value="Write 1. Receipt Pawn" style="shape=parallelogram;perimeter=parallelogramPerimeter;whiteSpace=wrap;html=1;fixedSize=1;" parent="1" vertex="1">
                    <mxGeometry x="360" y="510" width="180" height="60" as="geometry"/>
                </mxCell>
                <mxCell id="0oFu5oXA6grgBL6cNLWf-19" value="" style="edgeStyle=orthogonalEdgeStyle;rounded=0;orthogonalLoop=1;jettySize=auto;html=1;" parent="1" source="0oFu5oXA6grgBL6cNLWf-12" target="0oFu5oXA6grgBL6cNLWf-15" edge="1">
                    <mxGeometry relative="1" as="geometry"/>
                </mxCell>
                <mxCell id="0oFu5oXA6grgBL6cNLWf-12" value="Write 4. Delete Line" style="shape=parallelogram;perimeter=parallelogramPerimeter;whiteSpace=wrap;html=1;fixedSize=1;" parent="1" vertex="1">
                    <mxGeometry x="360" y="790" width="180" height="60" as="geometry"/>
                </mxCell>
                <mxCell id="0oFu5oXA6grgBL6cNLWf-18" value="" style="edgeStyle=orthogonalEdgeStyle;rounded=0;orthogonalLoop=1;jettySize=auto;html=1;" parent="1" source="0oFu5oXA6grgBL6cNLWf-13" target="0oFu5oXA6grgBL6cNLWf-12" edge="1">
                    <mxGeometry relative="1" as="geometry"/>
                </mxCell>
                <mxCell id="0oFu5oXA6grgBL6cNLWf-13" value="Write 3. Search" style="shape=parallelogram;perimeter=parallelogramPerimeter;whiteSpace=wrap;html=1;fixedSize=1;" parent="1" vertex="1">
                    <mxGeometry x="360" y="700" width="180" height="60" as="geometry"/>
                </mxCell>
                <mxCell id="0oFu5oXA6grgBL6cNLWf-17" value="" style="edgeStyle=orthogonalEdgeStyle;rounded=0;orthogonalLoop=1;jettySize=auto;html=1;" parent="1" source="0oFu5oXA6grgBL6cNLWf-14" target="0oFu5oXA6grgBL6cNLWf-13" edge="1">
                    <mxGeometry relative="1" as="geometry"/>
                </mxCell>
                <mxCell id="0oFu5oXA6grgBL6cNLWf-14" value="Write 2. Display" style="shape=parallelogram;perimeter=parallelogramPerimeter;whiteSpace=wrap;html=1;fixedSize=1;" parent="1" vertex="1">
                    <mxGeometry x="360" y="600" width="180" height="60" as="geometry"/>
                </mxCell>
                <mxCell id="0oFu5oXA6grgBL6cNLWf-21" value="" style="edgeStyle=orthogonalEdgeStyle;rounded=0;orthogonalLoop=1;jettySize=auto;html=1;" parent="1" source="0oFu5oXA6grgBL6cNLWf-15" target="0oFu5oXA6grgBL6cNLWf-20" edge="1">
                    <mxGeometry relative="1" as="geometry"/>
                </mxCell>
                <mxCell id="0oFu5oXA6grgBL6cNLWf-15" value="Write 5. Exit Program" style="shape=parallelogram;perimeter=parallelogramPerimeter;whiteSpace=wrap;html=1;fixedSize=1;" parent="1" vertex="1">
                    <mxGeometry x="360" y="890" width="180" height="60" as="geometry"/>
                </mxCell>
                <mxCell id="0oFu5oXA6grgBL6cNLWf-23" value="" style="edgeStyle=orthogonalEdgeStyle;rounded=0;orthogonalLoop=1;jettySize=auto;html=1;" parent="1" source="0oFu5oXA6grgBL6cNLWf-20" target="0oFu5oXA6grgBL6cNLWf-22" edge="1">
                    <mxGeometry relative="1" as="geometry"/>
                </mxCell>
                <mxCell id="0oFu5oXA6grgBL6cNLWf-20" value="Write Please choice in range 1 - 5&amp;nbsp;" style="shape=parallelogram;perimeter=parallelogramPerimeter;whiteSpace=wrap;html=1;fixedSize=1;" parent="1" vertex="1">
                    <mxGeometry x="335" y="990" width="230" height="60" as="geometry"/>
                </mxCell>
                <mxCell id="0oFu5oXA6grgBL6cNLWf-26" value="" style="edgeStyle=orthogonalEdgeStyle;rounded=0;orthogonalLoop=1;jettySize=auto;html=1;" parent="1" source="0oFu5oXA6grgBL6cNLWf-22" target="0oFu5oXA6grgBL6cNLWf-24" edge="1">
                    <mxGeometry relative="1" as="geometry"/>
                </mxCell>
                <mxCell id="0oFu5oXA6grgBL6cNLWf-22" value="Read choice" style="shape=parallelogram;perimeter=parallelogramPerimeter;whiteSpace=wrap;html=1;fixedSize=1;" parent="1" vertex="1">
                    <mxGeometry x="390" y="1090" width="120" height="60" as="geometry"/>
                </mxCell>
                <mxCell id="0oFu5oXA6grgBL6cNLWf-27" value="" style="edgeStyle=orthogonalEdgeStyle;rounded=0;orthogonalLoop=1;jettySize=auto;html=1;" parent="1" source="0oFu5oXA6grgBL6cNLWf-24" target="0oFu5oXA6grgBL6cNLWf-25" edge="1">
                    <mxGeometry relative="1" as="geometry"/>
                </mxCell>
                <mxCell id="CawyF6o6QRnpxyYWRTC1-3" style="edgeStyle=orthogonalEdgeStyle;rounded=0;orthogonalLoop=1;jettySize=auto;html=1;entryX=0.5;entryY=0;entryDx=0;entryDy=0;" parent="1" source="0oFu5oXA6grgBL6cNLWf-24" target="CawyF6o6QRnpxyYWRTC1-2" edge="1">
                    <mxGeometry relative="1" as="geometry"/>
                </mxCell>
                <mxCell id="0oFu5oXA6grgBL6cNLWf-24" value="if choice == 1" style="rhombus;whiteSpace=wrap;html=1;" parent="1" vertex="1">
                    <mxGeometry x="395" y="1190" width="110" height="90" as="geometry"/>
                </mxCell>
                <mxCell id="CawyF6o6QRnpxyYWRTC1-19" style="edgeStyle=orthogonalEdgeStyle;rounded=0;orthogonalLoop=1;jettySize=auto;html=1;entryX=0;entryY=0.5;entryDx=0;entryDy=0;exitX=0.5;exitY=1;exitDx=0;exitDy=0;" parent="1" source="0oFu5oXA6grgBL6cNLWf-25" target="CawyF6o6QRnpxyYWRTC1-18" edge="1">
                    <mxGeometry relative="1" as="geometry"/>
                </mxCell>
                <mxCell id="0oFu5oXA6grgBL6cNLWf-25" value="pawn" style="shape=process;whiteSpace=wrap;html=1;backgroundOutline=1;" parent="1" vertex="1">
                    <mxGeometry x="390" y="1320" width="120" height="60" as="geometry"/>
                </mxCell>
                <mxCell id="CawyF6o6QRnpxyYWRTC1-6" value="" style="edgeStyle=orthogonalEdgeStyle;rounded=0;orthogonalLoop=1;jettySize=auto;html=1;" parent="1" source="CawyF6o6QRnpxyYWRTC1-2" target="CawyF6o6QRnpxyYWRTC1-5" edge="1">
                    <mxGeometry relative="1" as="geometry"/>
                </mxCell>
                <mxCell id="CawyF6o6QRnpxyYWRTC1-8" style="edgeStyle=orthogonalEdgeStyle;rounded=0;orthogonalLoop=1;jettySize=auto;html=1;entryX=0.5;entryY=0;entryDx=0;entryDy=0;" parent="1" source="CawyF6o6QRnpxyYWRTC1-2" target="CawyF6o6QRnpxyYWRTC1-7" edge="1">
                    <mxGeometry relative="1" as="geometry"/>
                </mxCell>
                <mxCell id="CawyF6o6QRnpxyYWRTC1-2" value="if choice == 2" style="rhombus;whiteSpace=wrap;html=1;" parent="1" vertex="1">
                    <mxGeometry x="590" y="1280" width="110" height="80" as="geometry"/>
                </mxCell>
                <mxCell id="CawyF6o6QRnpxyYWRTC1-27" style="edgeStyle=orthogonalEdgeStyle;rounded=0;orthogonalLoop=1;jettySize=auto;html=1;entryX=0.5;entryY=0;entryDx=0;entryDy=0;" parent="1" source="CawyF6o6QRnpxyYWRTC1-4" target="CawyF6o6QRnpxyYWRTC1-25" edge="1">
                    <mxGeometry relative="1" as="geometry"/>
                </mxCell>
                <mxCell id="CawyF6o6QRnpxyYWRTC1-4" value="search" style="shape=process;whiteSpace=wrap;html=1;backgroundOutline=1;" parent="1" vertex="1">
                    <mxGeometry x="790" y="1480" width="120" height="60" as="geometry"/>
                </mxCell>
                <mxCell id="CawyF6o6QRnpxyYWRTC1-20" style="edgeStyle=orthogonalEdgeStyle;rounded=0;orthogonalLoop=1;jettySize=auto;html=1;entryX=0.5;entryY=0;entryDx=0;entryDy=0;" parent="1" source="CawyF6o6QRnpxyYWRTC1-5" target="CawyF6o6QRnpxyYWRTC1-18" edge="1">
                    <mxGeometry relative="1" as="geometry"/>
                </mxCell>
                <mxCell id="CawyF6o6QRnpxyYWRTC1-5" value="display" style="shape=process;whiteSpace=wrap;html=1;backgroundOutline=1;" parent="1" vertex="1">
                    <mxGeometry x="585" y="1410" width="120" height="60" as="geometry"/>
                </mxCell>
                <mxCell id="CawyF6o6QRnpxyYWRTC1-9" value="" style="edgeStyle=orthogonalEdgeStyle;rounded=0;orthogonalLoop=1;jettySize=auto;html=1;" parent="1" source="CawyF6o6QRnpxyYWRTC1-7" target="CawyF6o6QRnpxyYWRTC1-4" edge="1">
                    <mxGeometry relative="1" as="geometry"/>
                </mxCell>
                <mxCell id="CawyF6o6QRnpxyYWRTC1-11" style="edgeStyle=orthogonalEdgeStyle;rounded=0;orthogonalLoop=1;jettySize=auto;html=1;entryX=0.5;entryY=0;entryDx=0;entryDy=0;" parent="1" source="CawyF6o6QRnpxyYWRTC1-7" target="CawyF6o6QRnpxyYWRTC1-10" edge="1">
                    <mxGeometry relative="1" as="geometry"/>
                </mxCell>
                <mxCell id="CawyF6o6QRnpxyYWRTC1-7" value="if choice == 3" style="rhombus;whiteSpace=wrap;html=1;" parent="1" vertex="1">
                    <mxGeometry x="800" y="1340" width="100" height="90" as="geometry"/>
                </mxCell>
                <mxCell id="CawyF6o6QRnpxyYWRTC1-14" style="edgeStyle=orthogonalEdgeStyle;rounded=0;orthogonalLoop=1;jettySize=auto;html=1;entryX=0.5;entryY=0;entryDx=0;entryDy=0;" parent="1" source="CawyF6o6QRnpxyYWRTC1-10" target="CawyF6o6QRnpxyYWRTC1-13" edge="1">
                    <mxGeometry relative="1" as="geometry"/>
                </mxCell>
                <mxCell id="r8iC0yKP5Y_kf_EU_mU3-7" value="" style="edgeStyle=none;html=1;" edge="1" parent="1" source="CawyF6o6QRnpxyYWRTC1-10" target="CawyF6o6QRnpxyYWRTC1-12">
                    <mxGeometry relative="1" as="geometry"/>
                </mxCell>
                <mxCell id="CawyF6o6QRnpxyYWRTC1-10" value="if choice == 4" style="rhombus;whiteSpace=wrap;html=1;" parent="1" vertex="1">
                    <mxGeometry x="990" y="1410" width="110" height="80" as="geometry"/>
                </mxCell>
                <mxCell id="CawyF6o6QRnpxyYWRTC1-22" value="" style="edgeStyle=orthogonalEdgeStyle;rounded=0;orthogonalLoop=1;jettySize=auto;html=1;" parent="1" source="CawyF6o6QRnpxyYWRTC1-12" target="CawyF6o6QRnpxyYWRTC1-21" edge="1">
                    <mxGeometry relative="1" as="geometry"/>
                </mxCell>
                <mxCell id="CawyF6o6QRnpxyYWRTC1-12" value="delinput" style="shape=process;whiteSpace=wrap;html=1;backgroundOutline=1;" parent="1" vertex="1">
                    <mxGeometry x="985" y="1530" width="120" height="60" as="geometry"/>
                </mxCell>
                <mxCell id="CawyF6o6QRnpxyYWRTC1-24" value="" style="edgeStyle=orthogonalEdgeStyle;rounded=0;orthogonalLoop=1;jettySize=auto;html=1;" parent="1" source="CawyF6o6QRnpxyYWRTC1-13" target="CawyF6o6QRnpxyYWRTC1-16" edge="1">
                    <mxGeometry relative="1" as="geometry"/>
                </mxCell>
                <mxCell id="r8iC0yKP5Y_kf_EU_mU3-13" value="" style="edgeStyle=none;html=1;" edge="1" parent="1" source="CawyF6o6QRnpxyYWRTC1-13" target="r8iC0yKP5Y_kf_EU_mU3-12">
                    <mxGeometry relative="1" as="geometry"/>
                </mxCell>
                <mxCell id="CawyF6o6QRnpxyYWRTC1-13" value="if choice == 5" style="rhombus;whiteSpace=wrap;html=1;" parent="1" vertex="1">
                    <mxGeometry x="1200" y="1470" width="110" height="80" as="geometry"/>
                </mxCell>
                <mxCell id="CawyF6o6QRnpxyYWRTC1-23" style="edgeStyle=orthogonalEdgeStyle;rounded=0;orthogonalLoop=1;jettySize=auto;html=1;entryX=1;entryY=0.5;entryDx=0;entryDy=0;exitX=0.5;exitY=1;exitDx=0;exitDy=0;" parent="1" source="CawyF6o6QRnpxyYWRTC1-16" target="CawyF6o6QRnpxyYWRTC1-21" edge="1">
                    <mxGeometry relative="1" as="geometry"/>
                </mxCell>
                <mxCell id="CawyF6o6QRnpxyYWRTC1-16" value="exit(0)" style="rounded=0;whiteSpace=wrap;html=1;" parent="1" vertex="1">
                    <mxGeometry x="1195" y="1590" width="120" height="60" as="geometry"/>
                </mxCell>
                <mxCell id="CawyF6o6QRnpxyYWRTC1-17" value="End" style="rounded=1;whiteSpace=wrap;html=1;" parent="1" vertex="1">
                    <mxGeometry x="790" y="1760" width="120" height="60" as="geometry"/>
                </mxCell>
                <mxCell id="CawyF6o6QRnpxyYWRTC1-26" style="edgeStyle=orthogonalEdgeStyle;rounded=0;orthogonalLoop=1;jettySize=auto;html=1;entryX=0;entryY=0.5;entryDx=0;entryDy=0;" parent="1" source="CawyF6o6QRnpxyYWRTC1-18" target="CawyF6o6QRnpxyYWRTC1-25" edge="1">
                    <mxGeometry relative="1" as="geometry"/>
                </mxCell>
                <mxCell id="CawyF6o6QRnpxyYWRTC1-18" value="" style="ellipse;whiteSpace=wrap;html=1;aspect=fixed;" parent="1" vertex="1">
                    <mxGeometry x="625" y="1660" width="40" height="40" as="geometry"/>
                </mxCell>
                <mxCell id="CawyF6o6QRnpxyYWRTC1-28" style="edgeStyle=orthogonalEdgeStyle;rounded=0;orthogonalLoop=1;jettySize=auto;html=1;entryX=1;entryY=0.5;entryDx=0;entryDy=0;" parent="1" source="CawyF6o6QRnpxyYWRTC1-21" target="CawyF6o6QRnpxyYWRTC1-25" edge="1">
                    <mxGeometry relative="1" as="geometry"/>
                </mxCell>
                <mxCell id="CawyF6o6QRnpxyYWRTC1-21" value="" style="ellipse;whiteSpace=wrap;html=1;" parent="1" vertex="1">
                    <mxGeometry x="1025" y="1660" width="40" height="40" as="geometry"/>
                </mxCell>
                <mxCell id="CawyF6o6QRnpxyYWRTC1-29" value="" style="edgeStyle=orthogonalEdgeStyle;rounded=0;orthogonalLoop=1;jettySize=auto;html=1;" parent="1" source="CawyF6o6QRnpxyYWRTC1-25" target="CawyF6o6QRnpxyYWRTC1-17" edge="1">
                    <mxGeometry relative="1" as="geometry"/>
                </mxCell>
                <mxCell id="CawyF6o6QRnpxyYWRTC1-25" value="" style="ellipse;whiteSpace=wrap;html=1;" parent="1" vertex="1">
                    <mxGeometry x="825" y="1655" width="50" height="50" as="geometry"/>
                </mxCell>
                <mxCell id="r8iC0yKP5Y_kf_EU_mU3-1" value="false" style="text;html=1;align=center;verticalAlign=middle;resizable=0;points=[];autosize=1;strokeColor=none;fillColor=none;" vertex="1" parent="1">
                    <mxGeometry x="490" y="1210" width="40" height="20" as="geometry"/>
                </mxCell>
                <mxCell id="r8iC0yKP5Y_kf_EU_mU3-2" value="true" style="text;html=1;align=center;verticalAlign=middle;resizable=0;points=[];autosize=1;strokeColor=none;fillColor=none;" vertex="1" parent="1">
                    <mxGeometry x="410" y="1280" width="40" height="20" as="geometry"/>
                </mxCell>
                <mxCell id="r8iC0yKP5Y_kf_EU_mU3-3" value="false" style="text;html=1;align=center;verticalAlign=middle;resizable=0;points=[];autosize=1;strokeColor=none;fillColor=none;" vertex="1" parent="1">
                    <mxGeometry x="690" y="1300" width="40" height="20" as="geometry"/>
                </mxCell>
                <mxCell id="r8iC0yKP5Y_kf_EU_mU3-4" value="true" style="text;html=1;align=center;verticalAlign=middle;resizable=0;points=[];autosize=1;strokeColor=none;fillColor=none;" vertex="1" parent="1">
                    <mxGeometry x="610" y="1360" width="40" height="20" as="geometry"/>
                </mxCell>
                <mxCell id="r8iC0yKP5Y_kf_EU_mU3-5" value="true" style="text;html=1;align=center;verticalAlign=middle;resizable=0;points=[];autosize=1;strokeColor=none;fillColor=none;" vertex="1" parent="1">
                    <mxGeometry x="810" y="1420" width="40" height="20" as="geometry"/>
                </mxCell>
                <mxCell id="r8iC0yKP5Y_kf_EU_mU3-6" value="false" style="text;html=1;align=center;verticalAlign=middle;resizable=0;points=[];autosize=1;strokeColor=none;fillColor=none;" vertex="1" parent="1">
                    <mxGeometry x="890" y="1360" width="40" height="20" as="geometry"/>
                </mxCell>
                <mxCell id="r8iC0yKP5Y_kf_EU_mU3-8" value="true" style="text;html=1;align=center;verticalAlign=middle;resizable=0;points=[];autosize=1;strokeColor=none;fillColor=none;" vertex="1" parent="1">
                    <mxGeometry x="1010" y="1490" width="40" height="20" as="geometry"/>
                </mxCell>
                <mxCell id="r8iC0yKP5Y_kf_EU_mU3-9" value="false" style="text;html=1;align=center;verticalAlign=middle;resizable=0;points=[];autosize=1;strokeColor=none;fillColor=none;" vertex="1" parent="1">
                    <mxGeometry x="1080" y="1420" width="40" height="20" as="geometry"/>
                </mxCell>
                <mxCell id="r8iC0yKP5Y_kf_EU_mU3-10" value="true" style="text;html=1;align=center;verticalAlign=middle;resizable=0;points=[];autosize=1;strokeColor=none;fillColor=none;" vertex="1" parent="1">
                    <mxGeometry x="1220" y="1550" width="40" height="20" as="geometry"/>
                </mxCell>
                <mxCell id="r8iC0yKP5Y_kf_EU_mU3-11" value="false" style="text;html=1;align=center;verticalAlign=middle;resizable=0;points=[];autosize=1;strokeColor=none;fillColor=none;" vertex="1" parent="1">
                    <mxGeometry x="1300" y="1490" width="40" height="20" as="geometry"/>
                </mxCell>
                <mxCell id="r8iC0yKP5Y_kf_EU_mU3-15" style="edgeStyle=none;html=1;exitX=0.5;exitY=0;exitDx=0;exitDy=0;" edge="1" parent="1" source="r8iC0yKP5Y_kf_EU_mU3-12">
                    <mxGeometry relative="1" as="geometry">
                        <mxPoint x="450" y="480" as="targetPoint"/>
                        <Array as="points">
                            <mxPoint x="1460" y="480"/>
                        </Array>
                    </mxGeometry>
                </mxCell>
                <mxCell id="r8iC0yKP5Y_kf_EU_mU3-12" value="Write Please choice in range 1 - 5&amp;nbsp;" style="shape=parallelogram;perimeter=parallelogramPerimeter;whiteSpace=wrap;html=1;fixedSize=1;" vertex="1" parent="1">
                    <mxGeometry x="1360" y="1480" width="230" height="60" as="geometry"/>
                </mxCell>
            </root>
        </mxGraphModel>
    </diagram>
    <diagram id="hcz3Qc1NlsbqNf9qh10l" name="pawn">
        <mxGraphModel dx="712" dy="706" grid="1" gridSize="10" guides="1" tooltips="1" connect="1" arrows="1" fold="1" page="1" pageScale="1" pageWidth="827" pageHeight="1169" math="0" shadow="0">
            <root>
                <mxCell id="0"/>
                <mxCell id="1" parent="0"/>
                <mxCell id="XMFPRLJ7YHJuuJ_kXqUU-3" value="" style="edgeStyle=orthogonalEdgeStyle;rounded=0;orthogonalLoop=1;jettySize=auto;html=1;" parent="1" source="XMFPRLJ7YHJuuJ_kXqUU-1" target="XMFPRLJ7YHJuuJ_kXqUU-2" edge="1">
                    <mxGeometry relative="1" as="geometry"/>
                </mxCell>
                <mxCell id="XMFPRLJ7YHJuuJ_kXqUU-1" value="Start" style="rounded=1;whiteSpace=wrap;html=1;" parent="1" vertex="1">
                    <mxGeometry x="365" y="30" width="120" height="60" as="geometry"/>
                </mxCell>
                <mxCell id="XMFPRLJ7YHJuuJ_kXqUU-6" value="" style="edgeStyle=orthogonalEdgeStyle;rounded=0;orthogonalLoop=1;jettySize=auto;html=1;" parent="1" source="XMFPRLJ7YHJuuJ_kXqUU-2" target="XMFPRLJ7YHJuuJ_kXqUU-4" edge="1">
                    <mxGeometry relative="1" as="geometry"/>
                </mxCell>
                <mxCell id="XMFPRLJ7YHJuuJ_kXqUU-2" value="ofstream OutFile" style="rounded=0;whiteSpace=wrap;html=1;" parent="1" vertex="1">
                    <mxGeometry x="365" y="130" width="120" height="60" as="geometry"/>
                </mxCell>
                <mxCell id="XMFPRLJ7YHJuuJ_kXqUU-9" value="" style="edgeStyle=orthogonalEdgeStyle;rounded=0;orthogonalLoop=1;jettySize=auto;html=1;" parent="1" source="XMFPRLJ7YHJuuJ_kXqUU-4" target="XMFPRLJ7YHJuuJ_kXqUU-7" edge="1">
                    <mxGeometry relative="1" as="geometry"/>
                </mxCell>
                <mxCell id="USLk123-x5BQOUbftFbH-2" style="edgeStyle=none;html=1;exitX=0;exitY=0.5;exitDx=0;exitDy=0;" edge="1" parent="1" source="XMFPRLJ7YHJuuJ_kXqUU-4">
                    <mxGeometry relative="1" as="geometry">
                        <mxPoint x="780" y="3660" as="targetPoint"/>
                        <Array as="points">
                            <mxPoint x="110" y="280"/>
                            <mxPoint x="100" y="3660"/>
                        </Array>
                    </mxGeometry>
                </mxCell>
                <mxCell id="XMFPRLJ7YHJuuJ_kXqUU-4" value="if OutFile.is_open()" style="rhombus;whiteSpace=wrap;html=1;" parent="1" vertex="1">
                    <mxGeometry x="358" y="230" width="135" height="100" as="geometry"/>
                </mxCell>
                <mxCell id="XMFPRLJ7YHJuuJ_kXqUU-10" value="" style="edgeStyle=orthogonalEdgeStyle;rounded=0;orthogonalLoop=1;jettySize=auto;html=1;" parent="1" source="XMFPRLJ7YHJuuJ_kXqUU-7" target="XMFPRLJ7YHJuuJ_kXqUU-8" edge="1">
                    <mxGeometry relative="1" as="geometry"/>
                </mxCell>
                <mxCell id="XMFPRLJ7YHJuuJ_kXqUU-7" value="string ID, Product, Price" style="rounded=0;whiteSpace=wrap;html=1;" parent="1" vertex="1">
                    <mxGeometry x="348" y="370" width="155" height="70" as="geometry"/>
                </mxCell>
                <mxCell id="XMFPRLJ7YHJuuJ_kXqUU-12" value="" style="edgeStyle=orthogonalEdgeStyle;rounded=0;orthogonalLoop=1;jettySize=auto;html=1;" parent="1" source="XMFPRLJ7YHJuuJ_kXqUU-8" target="XMFPRLJ7YHJuuJ_kXqUU-11" edge="1">
                    <mxGeometry relative="1" as="geometry"/>
                </mxCell>
                <mxCell id="XMFPRLJ7YHJuuJ_kXqUU-8" value="int Day_input, Mount_input, Year_input" style="rounded=0;whiteSpace=wrap;html=1;" parent="1" vertex="1">
                    <mxGeometry x="283" y="480" width="285" height="60" as="geometry"/>
                </mxCell>
                <mxCell id="XMFPRLJ7YHJuuJ_kXqUU-14" value="" style="edgeStyle=orthogonalEdgeStyle;rounded=0;orthogonalLoop=1;jettySize=auto;html=1;" parent="1" source="XMFPRLJ7YHJuuJ_kXqUU-11" target="XMFPRLJ7YHJuuJ_kXqUU-13" edge="1">
                    <mxGeometry relative="1" as="geometry"/>
                </mxCell>
                <mxCell id="XMFPRLJ7YHJuuJ_kXqUU-11" value="int Day_Expired, Mount_Expired, Year_Expired" style="rounded=0;whiteSpace=wrap;html=1;" parent="1" vertex="1">
                    <mxGeometry x="278" y="570" width="295" height="60" as="geometry"/>
                </mxCell>
                <mxCell id="XMFPRLJ7YHJuuJ_kXqUU-16" value="" style="edgeStyle=orthogonalEdgeStyle;rounded=0;orthogonalLoop=1;jettySize=auto;html=1;" parent="1" source="XMFPRLJ7YHJuuJ_kXqUU-13" target="XMFPRLJ7YHJuuJ_kXqUU-15" edge="1">
                    <mxGeometry relative="1" as="geometry"/>
                </mxCell>
                <mxCell id="XMFPRLJ7YHJuuJ_kXqUU-13" value="Write Enter ID (ex.1001)" style="shape=parallelogram;perimeter=parallelogramPerimeter;whiteSpace=wrap;html=1;fixedSize=1;" parent="1" vertex="1">
                    <mxGeometry x="328" y="670" width="195" height="50" as="geometry"/>
                </mxCell>
                <mxCell id="XMFPRLJ7YHJuuJ_kXqUU-18" value="" style="edgeStyle=orthogonalEdgeStyle;rounded=0;orthogonalLoop=1;jettySize=auto;html=1;" parent="1" source="XMFPRLJ7YHJuuJ_kXqUU-15" target="XMFPRLJ7YHJuuJ_kXqUU-17" edge="1">
                    <mxGeometry relative="1" as="geometry"/>
                </mxCell>
                <mxCell id="XMFPRLJ7YHJuuJ_kXqUU-15" value="Read ID" style="shape=parallelogram;perimeter=parallelogramPerimeter;whiteSpace=wrap;html=1;fixedSize=1;" parent="1" vertex="1">
                    <mxGeometry x="320.5" y="750" width="210" height="40" as="geometry"/>
                </mxCell>
                <mxCell id="XMFPRLJ7YHJuuJ_kXqUU-20" value="" style="edgeStyle=orthogonalEdgeStyle;rounded=0;orthogonalLoop=1;jettySize=auto;html=1;" parent="1" source="XMFPRLJ7YHJuuJ_kXqUU-17" target="XMFPRLJ7YHJuuJ_kXqUU-19" edge="1">
                    <mxGeometry relative="1" as="geometry"/>
                </mxCell>
                <mxCell id="XMFPRLJ7YHJuuJ_kXqUU-17" value="Write Enter Product Name" style="shape=parallelogram;perimeter=parallelogramPerimeter;whiteSpace=wrap;html=1;fixedSize=1;" parent="1" vertex="1">
                    <mxGeometry x="339" y="830" width="172" height="60" as="geometry"/>
                </mxCell>
                <mxCell id="XMFPRLJ7YHJuuJ_kXqUU-24" value="" style="edgeStyle=orthogonalEdgeStyle;rounded=0;orthogonalLoop=1;jettySize=auto;html=1;" parent="1" source="XMFPRLJ7YHJuuJ_kXqUU-19" target="XMFPRLJ7YHJuuJ_kXqUU-21" edge="1">
                    <mxGeometry relative="1" as="geometry"/>
                </mxCell>
                <mxCell id="XMFPRLJ7YHJuuJ_kXqUU-19" value="Read Product" style="shape=parallelogram;perimeter=parallelogramPerimeter;whiteSpace=wrap;html=1;fixedSize=1;" parent="1" vertex="1">
                    <mxGeometry x="365" y="930" width="120" height="60" as="geometry"/>
                </mxCell>
                <mxCell id="XMFPRLJ7YHJuuJ_kXqUU-25" value="" style="edgeStyle=orthogonalEdgeStyle;rounded=0;orthogonalLoop=1;jettySize=auto;html=1;" parent="1" source="XMFPRLJ7YHJuuJ_kXqUU-21" target="XMFPRLJ7YHJuuJ_kXqUU-22" edge="1">
                    <mxGeometry relative="1" as="geometry"/>
                </mxCell>
                <mxCell id="XMFPRLJ7YHJuuJ_kXqUU-21" value="Write Enter date (dd/mm/yyyy)" style="shape=parallelogram;perimeter=parallelogramPerimeter;whiteSpace=wrap;html=1;fixedSize=1;" parent="1" vertex="1">
                    <mxGeometry x="309" y="1020" width="232" height="60" as="geometry"/>
                </mxCell>
                <mxCell id="XMFPRLJ7YHJuuJ_kXqUU-26" value="" style="edgeStyle=orthogonalEdgeStyle;rounded=0;orthogonalLoop=1;jettySize=auto;html=1;" parent="1" source="XMFPRLJ7YHJuuJ_kXqUU-22" target="XMFPRLJ7YHJuuJ_kXqUU-23" edge="1">
                    <mxGeometry relative="1" as="geometry"/>
                </mxCell>
                <mxCell id="XMFPRLJ7YHJuuJ_kXqUU-22" value="Read Day_input" style="shape=parallelogram;perimeter=parallelogramPerimeter;whiteSpace=wrap;html=1;fixedSize=1;" parent="1" vertex="1">
                    <mxGeometry x="365.5" y="1120" width="120" height="60" as="geometry"/>
                </mxCell>
                <mxCell id="7Hg_bLyndpzkFyGsmqFv-4" value="" style="edgeStyle=orthogonalEdgeStyle;rounded=0;orthogonalLoop=1;jettySize=auto;html=1;" parent="1" source="XMFPRLJ7YHJuuJ_kXqUU-23" target="7Hg_bLyndpzkFyGsmqFv-1" edge="1">
                    <mxGeometry relative="1" as="geometry"/>
                </mxCell>
                <mxCell id="XMFPRLJ7YHJuuJ_kXqUU-23" value="if Day_input != '/'" style="rhombus;whiteSpace=wrap;html=1;" parent="1" vertex="1">
                    <mxGeometry x="363" y="1220" width="124.5" height="80" as="geometry"/>
                </mxCell>
                <mxCell id="7Hg_bLyndpzkFyGsmqFv-5" value="" style="edgeStyle=orthogonalEdgeStyle;rounded=0;orthogonalLoop=1;jettySize=auto;html=1;" parent="1" source="7Hg_bLyndpzkFyGsmqFv-1" target="7Hg_bLyndpzkFyGsmqFv-3" edge="1">
                    <mxGeometry relative="1" as="geometry"/>
                </mxCell>
                <mxCell id="7Hg_bLyndpzkFyGsmqFv-1" value="Read Mounth_Input" style="shape=parallelogram;perimeter=parallelogramPerimeter;whiteSpace=wrap;html=1;fixedSize=1;" parent="1" vertex="1">
                    <mxGeometry x="347" y="1340" width="157" height="60" as="geometry"/>
                </mxCell>
                <mxCell id="7Hg_bLyndpzkFyGsmqFv-14" value="" style="edgeStyle=orthogonalEdgeStyle;rounded=0;orthogonalLoop=1;jettySize=auto;html=1;" parent="1" source="7Hg_bLyndpzkFyGsmqFv-2" target="7Hg_bLyndpzkFyGsmqFv-13" edge="1">
                    <mxGeometry relative="1" as="geometry"/>
                </mxCell>
                <mxCell id="uMAbDr4l1URi8nTD8kjh-6" style="edgeStyle=none;html=1;exitX=0;exitY=0.5;exitDx=0;exitDy=0;" edge="1" parent="1" source="7Hg_bLyndpzkFyGsmqFv-2">
                    <mxGeometry relative="1" as="geometry">
                        <mxPoint x="100" y="1940" as="targetPoint"/>
                    </mxGeometry>
                </mxCell>
                <mxCell id="7Hg_bLyndpzkFyGsmqFv-2" value="if Day_input != '/'" style="rhombus;whiteSpace=wrap;html=1;" parent="1" vertex="1">
                    <mxGeometry x="363" y="1900" width="124.5" height="80" as="geometry"/>
                </mxCell>
                <mxCell id="7Hg_bLyndpzkFyGsmqFv-7" value="" style="edgeStyle=orthogonalEdgeStyle;rounded=0;orthogonalLoop=1;jettySize=auto;html=1;" parent="1" source="7Hg_bLyndpzkFyGsmqFv-3" target="7Hg_bLyndpzkFyGsmqFv-6" edge="1">
                    <mxGeometry relative="1" as="geometry"/>
                </mxCell>
                <mxCell id="uMAbDr4l1URi8nTD8kjh-5" style="edgeStyle=none;html=1;exitX=0;exitY=0.5;exitDx=0;exitDy=0;" edge="1" parent="1" source="7Hg_bLyndpzkFyGsmqFv-3">
                    <mxGeometry relative="1" as="geometry">
                        <mxPoint x="100" y="1480" as="targetPoint"/>
                    </mxGeometry>
                </mxCell>
                <mxCell id="7Hg_bLyndpzkFyGsmqFv-3" value="if Day_input != '/'" style="rhombus;whiteSpace=wrap;html=1;" parent="1" vertex="1">
                    <mxGeometry x="363" y="1440" width="124.5" height="80" as="geometry"/>
                </mxCell>
                <mxCell id="7Hg_bLyndpzkFyGsmqFv-10" value="" style="edgeStyle=orthogonalEdgeStyle;rounded=0;orthogonalLoop=1;jettySize=auto;html=1;" parent="1" source="7Hg_bLyndpzkFyGsmqFv-6" target="7Hg_bLyndpzkFyGsmqFv-8" edge="1">
                    <mxGeometry relative="1" as="geometry"/>
                </mxCell>
                <mxCell id="7Hg_bLyndpzkFyGsmqFv-6" value="Read Year_Input" style="shape=parallelogram;perimeter=parallelogramPerimeter;whiteSpace=wrap;html=1;fixedSize=1;" parent="1" vertex="1">
                    <mxGeometry x="365" y="1570" width="120" height="60" as="geometry"/>
                </mxCell>
                <mxCell id="7Hg_bLyndpzkFyGsmqFv-11" value="" style="edgeStyle=orthogonalEdgeStyle;rounded=0;orthogonalLoop=1;jettySize=auto;html=1;" parent="1" source="7Hg_bLyndpzkFyGsmqFv-8" target="7Hg_bLyndpzkFyGsmqFv-9" edge="1">
                    <mxGeometry relative="1" as="geometry"/>
                </mxCell>
                <mxCell id="7Hg_bLyndpzkFyGsmqFv-8" value="Write Enter Expired date (dd/mm/yyyy)" style="shape=parallelogram;perimeter=parallelogramPerimeter;whiteSpace=wrap;html=1;fixedSize=1;" parent="1" vertex="1">
                    <mxGeometry x="295" y="1690" width="261" height="60" as="geometry"/>
                </mxCell>
                <mxCell id="7Hg_bLyndpzkFyGsmqFv-12" value="" style="edgeStyle=orthogonalEdgeStyle;rounded=0;orthogonalLoop=1;jettySize=auto;html=1;" parent="1" source="7Hg_bLyndpzkFyGsmqFv-9" target="7Hg_bLyndpzkFyGsmqFv-2" edge="1">
                    <mxGeometry relative="1" as="geometry"/>
                </mxCell>
                <mxCell id="7Hg_bLyndpzkFyGsmqFv-9" value="Read Day_Expired" style="shape=parallelogram;perimeter=parallelogramPerimeter;whiteSpace=wrap;html=1;fixedSize=1;" parent="1" vertex="1">
                    <mxGeometry x="343" y="1790" width="165" height="60" as="geometry"/>
                </mxCell>
                <mxCell id="7Hg_bLyndpzkFyGsmqFv-17" value="" style="edgeStyle=orthogonalEdgeStyle;rounded=0;orthogonalLoop=1;jettySize=auto;html=1;" parent="1" source="7Hg_bLyndpzkFyGsmqFv-13" target="7Hg_bLyndpzkFyGsmqFv-15" edge="1">
                    <mxGeometry relative="1" as="geometry"/>
                </mxCell>
                <mxCell id="7Hg_bLyndpzkFyGsmqFv-13" value="Read Mounth_Expired" style="shape=parallelogram;perimeter=parallelogramPerimeter;whiteSpace=wrap;html=1;fixedSize=1;" parent="1" vertex="1">
                    <mxGeometry x="343" y="2010" width="165" height="60" as="geometry"/>
                </mxCell>
                <mxCell id="7Hg_bLyndpzkFyGsmqFv-18" value="" style="edgeStyle=orthogonalEdgeStyle;rounded=0;orthogonalLoop=1;jettySize=auto;html=1;" parent="1" source="7Hg_bLyndpzkFyGsmqFv-15" target="7Hg_bLyndpzkFyGsmqFv-16" edge="1">
                    <mxGeometry relative="1" as="geometry"/>
                </mxCell>
                <mxCell id="uMAbDr4l1URi8nTD8kjh-8" style="edgeStyle=none;html=1;exitX=0;exitY=0.5;exitDx=0;exitDy=0;" edge="1" parent="1" source="7Hg_bLyndpzkFyGsmqFv-15">
                    <mxGeometry relative="1" as="geometry">
                        <mxPoint x="100" y="2150.2121212121215" as="targetPoint"/>
                    </mxGeometry>
                </mxCell>
                <mxCell id="7Hg_bLyndpzkFyGsmqFv-15" value="if Day_input != '/'" style="rhombus;whiteSpace=wrap;html=1;" parent="1" vertex="1">
                    <mxGeometry x="363" y="2110" width="124.5" height="80" as="geometry"/>
                </mxCell>
                <mxCell id="7Hg_bLyndpzkFyGsmqFv-20" value="" style="edgeStyle=orthogonalEdgeStyle;rounded=0;orthogonalLoop=1;jettySize=auto;html=1;" parent="1" source="7Hg_bLyndpzkFyGsmqFv-16" target="7Hg_bLyndpzkFyGsmqFv-19" edge="1">
                    <mxGeometry relative="1" as="geometry"/>
                </mxCell>
                <mxCell id="7Hg_bLyndpzkFyGsmqFv-16" value="Read Year_Expired" style="shape=parallelogram;perimeter=parallelogramPerimeter;whiteSpace=wrap;html=1;fixedSize=1;" parent="1" vertex="1">
                    <mxGeometry x="343" y="2240" width="165" height="60" as="geometry"/>
                </mxCell>
                <mxCell id="7Hg_bLyndpzkFyGsmqFv-22" value="" style="edgeStyle=orthogonalEdgeStyle;rounded=0;orthogonalLoop=1;jettySize=auto;html=1;" parent="1" source="7Hg_bLyndpzkFyGsmqFv-19" target="7Hg_bLyndpzkFyGsmqFv-21" edge="1">
                    <mxGeometry relative="1" as="geometry"/>
                </mxCell>
                <mxCell id="7Hg_bLyndpzkFyGsmqFv-19" value="Write Enter your price" style="shape=parallelogram;perimeter=parallelogramPerimeter;whiteSpace=wrap;html=1;fixedSize=1;" parent="1" vertex="1">
                    <mxGeometry x="343" y="2350" width="165" height="60" as="geometry"/>
                </mxCell>
                <mxCell id="7Hg_bLyndpzkFyGsmqFv-24" value="" style="edgeStyle=orthogonalEdgeStyle;rounded=0;orthogonalLoop=1;jettySize=auto;html=1;" parent="1" source="7Hg_bLyndpzkFyGsmqFv-21" target="7Hg_bLyndpzkFyGsmqFv-23" edge="1">
                    <mxGeometry relative="1" as="geometry"/>
                </mxCell>
                <mxCell id="7Hg_bLyndpzkFyGsmqFv-21" value="Read Price" style="shape=parallelogram;perimeter=parallelogramPerimeter;whiteSpace=wrap;html=1;fixedSize=1;" parent="1" vertex="1">
                    <mxGeometry x="365.5" y="2460" width="120" height="60" as="geometry"/>
                </mxCell>
                <mxCell id="7Hg_bLyndpzkFyGsmqFv-26" value="" style="edgeStyle=orthogonalEdgeStyle;rounded=0;orthogonalLoop=1;jettySize=auto;html=1;" parent="1" source="7Hg_bLyndpzkFyGsmqFv-23" target="7Hg_bLyndpzkFyGsmqFv-25" edge="1">
                    <mxGeometry relative="1" as="geometry"/>
                </mxCell>
                <mxCell id="7Hg_bLyndpzkFyGsmqFv-23" value="int Interest, sum_date, sum_month, sum_year" style="rounded=0;whiteSpace=wrap;html=1;" parent="1" vertex="1">
                    <mxGeometry x="282" y="2570" width="287" height="50" as="geometry"/>
                </mxCell>
                <mxCell id="7Hg_bLyndpzkFyGsmqFv-28" value="" style="edgeStyle=orthogonalEdgeStyle;rounded=0;orthogonalLoop=1;jettySize=auto;html=1;" parent="1" source="7Hg_bLyndpzkFyGsmqFv-25" target="7Hg_bLyndpzkFyGsmqFv-27" edge="1">
                    <mxGeometry relative="1" as="geometry"/>
                </mxCell>
                <mxCell id="7Hg_bLyndpzkFyGsmqFv-25" value="char slash_dummy = '/'" style="rounded=0;whiteSpace=wrap;html=1;" parent="1" vertex="1">
                    <mxGeometry x="323" y="2660" width="205" height="50" as="geometry"/>
                </mxCell>
                <mxCell id="7Hg_bLyndpzkFyGsmqFv-31" value="" style="edgeStyle=orthogonalEdgeStyle;rounded=0;orthogonalLoop=1;jettySize=auto;html=1;" parent="1" source="7Hg_bLyndpzkFyGsmqFv-27" target="7Hg_bLyndpzkFyGsmqFv-29" edge="1">
                    <mxGeometry relative="1" as="geometry"/>
                </mxCell>
                <mxCell id="7Hg_bLyndpzkFyGsmqFv-27" value="sum_date = abs(Day_Input - Day_Expired" style="rounded=0;whiteSpace=wrap;html=1;" parent="1" vertex="1">
                    <mxGeometry x="283" y="2760" width="285" height="50" as="geometry"/>
                </mxCell>
                <mxCell id="7Hg_bLyndpzkFyGsmqFv-32" value="" style="edgeStyle=orthogonalEdgeStyle;rounded=0;orthogonalLoop=1;jettySize=auto;html=1;" parent="1" source="7Hg_bLyndpzkFyGsmqFv-29" target="7Hg_bLyndpzkFyGsmqFv-30" edge="1">
                    <mxGeometry relative="1" as="geometry"/>
                </mxCell>
                <mxCell id="7Hg_bLyndpzkFyGsmqFv-29" value="sum_month = abs(Month_Input - Month_Expired" style="rounded=0;whiteSpace=wrap;html=1;" parent="1" vertex="1">
                    <mxGeometry x="283" y="2850" width="285" height="50" as="geometry"/>
                </mxCell>
                <mxCell id="7Hg_bLyndpzkFyGsmqFv-35" value="" style="edgeStyle=orthogonalEdgeStyle;rounded=0;orthogonalLoop=1;jettySize=auto;html=1;" parent="1" source="7Hg_bLyndpzkFyGsmqFv-30" target="7Hg_bLyndpzkFyGsmqFv-33" edge="1">
                    <mxGeometry relative="1" as="geometry"/>
                </mxCell>
                <mxCell id="7Hg_bLyndpzkFyGsmqFv-30" value="sum_year = abs(Year_Input - Year_Expired" style="rounded=0;whiteSpace=wrap;html=1;" parent="1" vertex="1">
                    <mxGeometry x="283" y="2940" width="285" height="50" as="geometry"/>
                </mxCell>
                <mxCell id="7Hg_bLyndpzkFyGsmqFv-36" value="" style="edgeStyle=orthogonalEdgeStyle;rounded=0;orthogonalLoop=1;jettySize=auto;html=1;" parent="1" source="7Hg_bLyndpzkFyGsmqFv-33" target="7Hg_bLyndpzkFyGsmqFv-34" edge="1">
                    <mxGeometry relative="1" as="geometry"/>
                </mxCell>
                <mxCell id="7Hg_bLyndpzkFyGsmqFv-40" style="edgeStyle=orthogonalEdgeStyle;rounded=0;orthogonalLoop=1;jettySize=auto;html=1;entryX=0.5;entryY=0;entryDx=0;entryDy=0;" parent="1" source="7Hg_bLyndpzkFyGsmqFv-33" target="7Hg_bLyndpzkFyGsmqFv-39" edge="1">
                    <mxGeometry relative="1" as="geometry"/>
                </mxCell>
                <mxCell id="7Hg_bLyndpzkFyGsmqFv-33" value="if sum_year &amp;gt;= 1" style="rhombus;whiteSpace=wrap;html=1;" parent="1" vertex="1">
                    <mxGeometry x="358" y="3040" width="134.5" height="100" as="geometry"/>
                </mxCell>
                <mxCell id="7Hg_bLyndpzkFyGsmqFv-38" value="" style="edgeStyle=orthogonalEdgeStyle;rounded=0;orthogonalLoop=1;jettySize=auto;html=1;" parent="1" source="7Hg_bLyndpzkFyGsmqFv-34" target="7Hg_bLyndpzkFyGsmqFv-37" edge="1">
                    <mxGeometry relative="1" as="geometry"/>
                </mxCell>
                <mxCell id="7Hg_bLyndpzkFyGsmqFv-34" value="Interest = stoi(Price) * 0.03" style="rounded=0;whiteSpace=wrap;html=1;" parent="1" vertex="1">
                    <mxGeometry x="343" y="3170" width="165" height="60" as="geometry"/>
                </mxCell>
                <mxCell id="7Hg_bLyndpzkFyGsmqFv-37" value="Interest += stoi(Price)" style="rounded=0;whiteSpace=wrap;html=1;" parent="1" vertex="1">
                    <mxGeometry x="353" y="3270" width="145" height="60" as="geometry"/>
                </mxCell>
                <mxCell id="7Hg_bLyndpzkFyGsmqFv-42" value="" style="edgeStyle=orthogonalEdgeStyle;rounded=0;orthogonalLoop=1;jettySize=auto;html=1;" parent="1" source="7Hg_bLyndpzkFyGsmqFv-39" target="7Hg_bLyndpzkFyGsmqFv-41" edge="1">
                    <mxGeometry relative="1" as="geometry"/>
                </mxCell>
                <mxCell id="7Hg_bLyndpzkFyGsmqFv-47" style="edgeStyle=orthogonalEdgeStyle;rounded=0;orthogonalLoop=1;jettySize=auto;html=1;entryX=0.5;entryY=0;entryDx=0;entryDy=0;" parent="1" source="7Hg_bLyndpzkFyGsmqFv-39" target="7Hg_bLyndpzkFyGsmqFv-46" edge="1">
                    <mxGeometry relative="1" as="geometry"/>
                </mxCell>
                <mxCell id="7Hg_bLyndpzkFyGsmqFv-39" value="if sum_month &amp;gt;=1" style="rhombus;whiteSpace=wrap;html=1;" parent="1" vertex="1">
                    <mxGeometry x="556" y="3110" width="144" height="100" as="geometry"/>
                </mxCell>
                <mxCell id="7Hg_bLyndpzkFyGsmqFv-44" value="" style="edgeStyle=orthogonalEdgeStyle;rounded=0;orthogonalLoop=1;jettySize=auto;html=1;" parent="1" source="7Hg_bLyndpzkFyGsmqFv-41" target="7Hg_bLyndpzkFyGsmqFv-43" edge="1">
                    <mxGeometry relative="1" as="geometry"/>
                </mxCell>
                <mxCell id="7Hg_bLyndpzkFyGsmqFv-41" value="Interest = stoi(Price) * 0.265" style="rounded=0;whiteSpace=wrap;html=1;" parent="1" vertex="1">
                    <mxGeometry x="539.5" y="3250" width="177" height="60" as="geometry"/>
                </mxCell>
                <mxCell id="7Hg_bLyndpzkFyGsmqFv-48" style="edgeStyle=orthogonalEdgeStyle;rounded=0;orthogonalLoop=1;jettySize=auto;html=1;entryX=0;entryY=0.5;entryDx=0;entryDy=0;exitX=0.5;exitY=1;exitDx=0;exitDy=0;" parent="1" source="7Hg_bLyndpzkFyGsmqFv-43" target="7Hg_bLyndpzkFyGsmqFv-46" edge="1">
                    <mxGeometry relative="1" as="geometry"/>
                </mxCell>
                <mxCell id="7Hg_bLyndpzkFyGsmqFv-43" value="Interest += stoi(Price)" style="rounded=0;whiteSpace=wrap;html=1;" parent="1" vertex="1">
                    <mxGeometry x="549.5" y="3350" width="157" height="60" as="geometry"/>
                </mxCell>
                <mxCell id="7Hg_bLyndpzkFyGsmqFv-55" value="" style="edgeStyle=orthogonalEdgeStyle;rounded=0;orthogonalLoop=1;jettySize=auto;html=1;" parent="1" source="7Hg_bLyndpzkFyGsmqFv-45" target="7Hg_bLyndpzkFyGsmqFv-52" edge="1">
                    <mxGeometry relative="1" as="geometry">
                        <Array as="points">
                            <mxPoint x="775" y="3660"/>
                            <mxPoint x="775" y="3660"/>
                        </Array>
                    </mxGeometry>
                </mxCell>
                <mxCell id="7Hg_bLyndpzkFyGsmqFv-45" value="OutFile &amp;lt;&amp;lt; ID &amp;lt;&amp;lt; Product &amp;lt;&amp;lt; Interest &amp;lt;&amp;lt; Day_Input &amp;lt;&amp;lt; Slash_dummy &amp;lt;&amp;lt; Month_Input &amp;lt;&amp;lt; Slash_dummy &amp;lt;&amp;lt; Year_Input &amp;lt;&amp;lt; Day_Expired &amp;lt;&amp;lt; Slash_dummy &amp;lt;&amp;lt; Month_Expired &amp;lt;&amp;lt; Slash_dummy &amp;lt;&amp;lt; Year_Expired" style="rounded=0;whiteSpace=wrap;html=1;" parent="1" vertex="1">
                    <mxGeometry x="453" y="3570" width="644" height="70" as="geometry"/>
                </mxCell>
                <mxCell id="7Hg_bLyndpzkFyGsmqFv-51" value="" style="edgeStyle=orthogonalEdgeStyle;rounded=0;orthogonalLoop=1;jettySize=auto;html=1;" parent="1" source="7Hg_bLyndpzkFyGsmqFv-46" target="7Hg_bLyndpzkFyGsmqFv-45" edge="1">
                    <mxGeometry relative="1" as="geometry"/>
                </mxCell>
                <mxCell id="7Hg_bLyndpzkFyGsmqFv-46" value="" style="ellipse;whiteSpace=wrap;html=1;" parent="1" vertex="1">
                    <mxGeometry x="750" y="3440" width="50" height="50" as="geometry"/>
                </mxCell>
                <mxCell id="7Hg_bLyndpzkFyGsmqFv-49" value="" style="endArrow=none;html=1;rounded=0;exitX=0.5;exitY=1;exitDx=0;exitDy=0;entryX=0;entryY=0.5;entryDx=0;entryDy=0;" parent="1" source="7Hg_bLyndpzkFyGsmqFv-37" target="7Hg_bLyndpzkFyGsmqFv-46" edge="1">
                    <mxGeometry width="50" height="50" relative="1" as="geometry">
                        <mxPoint x="720" y="3270" as="sourcePoint"/>
                        <mxPoint x="610" y="3470" as="targetPoint"/>
                        <Array as="points">
                            <mxPoint x="426" y="3465"/>
                        </Array>
                    </mxGeometry>
                </mxCell>
                <mxCell id="7Hg_bLyndpzkFyGsmqFv-52" value="End" style="rounded=1;whiteSpace=wrap;html=1;" parent="1" vertex="1">
                    <mxGeometry x="715" y="3680" width="120" height="60" as="geometry"/>
                </mxCell>
                <mxCell id="uMAbDr4l1URi8nTD8kjh-1" value="true" style="text;html=1;align=center;verticalAlign=middle;resizable=0;points=[];autosize=1;strokeColor=none;fillColor=none;" vertex="1" parent="1">
                    <mxGeometry x="430" y="330" width="40" height="20" as="geometry"/>
                </mxCell>
                <mxCell id="uMAbDr4l1URi8nTD8kjh-2" value="false" style="text;html=1;align=center;verticalAlign=middle;resizable=0;points=[];autosize=1;strokeColor=none;fillColor=none;" vertex="1" parent="1">
                    <mxGeometry x="320" y="260" width="40" height="20" as="geometry"/>
                </mxCell>
                <mxCell id="uMAbDr4l1URi8nTD8kjh-7" value="" style="endArrow=classic;html=1;exitX=0;exitY=0.5;exitDx=0;exitDy=0;" edge="1" parent="1" source="XMFPRLJ7YHJuuJ_kXqUU-23">
                    <mxGeometry width="50" height="50" relative="1" as="geometry">
                        <mxPoint x="240" y="1280" as="sourcePoint"/>
                        <mxPoint x="100" y="1260" as="targetPoint"/>
                    </mxGeometry>
                </mxCell>
                <mxCell id="uMAbDr4l1URi8nTD8kjh-9" value="false" style="text;html=1;align=center;verticalAlign=middle;resizable=0;points=[];autosize=1;strokeColor=none;fillColor=none;" vertex="1" parent="1">
                    <mxGeometry x="330" y="1240" width="40" height="20" as="geometry"/>
                </mxCell>
                <mxCell id="uMAbDr4l1URi8nTD8kjh-10" value="true" style="text;html=1;align=center;verticalAlign=middle;resizable=0;points=[];autosize=1;strokeColor=none;fillColor=none;" vertex="1" parent="1">
                    <mxGeometry x="430" y="1300" width="40" height="20" as="geometry"/>
                </mxCell>
                <mxCell id="uMAbDr4l1URi8nTD8kjh-11" value="false" style="text;html=1;align=center;verticalAlign=middle;resizable=0;points=[];autosize=1;strokeColor=none;fillColor=none;" vertex="1" parent="1">
                    <mxGeometry x="330" y="1460" width="40" height="20" as="geometry"/>
                </mxCell>
                <mxCell id="uMAbDr4l1URi8nTD8kjh-12" value="true" style="text;html=1;align=center;verticalAlign=middle;resizable=0;points=[];autosize=1;strokeColor=none;fillColor=none;" vertex="1" parent="1">
                    <mxGeometry x="420" y="1518" width="40" height="20" as="geometry"/>
                </mxCell>
                <mxCell id="uMAbDr4l1URi8nTD8kjh-13" value="false" style="text;html=1;align=center;verticalAlign=middle;resizable=0;points=[];autosize=1;strokeColor=none;fillColor=none;" vertex="1" parent="1">
                    <mxGeometry x="320" y="1910" width="40" height="20" as="geometry"/>
                </mxCell>
                <mxCell id="uMAbDr4l1URi8nTD8kjh-14" value="true" style="text;html=1;align=center;verticalAlign=middle;resizable=0;points=[];autosize=1;strokeColor=none;fillColor=none;" vertex="1" parent="1">
                    <mxGeometry x="420" y="1980" width="40" height="20" as="geometry"/>
                </mxCell>
                <mxCell id="uMAbDr4l1URi8nTD8kjh-15" value="false" style="text;html=1;align=center;verticalAlign=middle;resizable=0;points=[];autosize=1;strokeColor=none;fillColor=none;" vertex="1" parent="1">
                    <mxGeometry x="320" y="2130" width="40" height="20" as="geometry"/>
                </mxCell>
                <mxCell id="uMAbDr4l1URi8nTD8kjh-16" value="true" style="text;html=1;align=center;verticalAlign=middle;resizable=0;points=[];autosize=1;strokeColor=none;fillColor=none;" vertex="1" parent="1">
                    <mxGeometry x="420" y="2190" width="40" height="20" as="geometry"/>
                </mxCell>
                <mxCell id="uMAbDr4l1URi8nTD8kjh-17" value="true" style="text;html=1;align=center;verticalAlign=middle;resizable=0;points=[];autosize=1;strokeColor=none;fillColor=none;" vertex="1" parent="1">
                    <mxGeometry x="380" y="3140" width="40" height="20" as="geometry"/>
                </mxCell>
                <mxCell id="uMAbDr4l1URi8nTD8kjh-18" value="false" style="text;html=1;align=center;verticalAlign=middle;resizable=0;points=[];autosize=1;strokeColor=none;fillColor=none;" vertex="1" parent="1">
                    <mxGeometry x="480" y="3070" width="40" height="20" as="geometry"/>
                </mxCell>
                <mxCell id="uMAbDr4l1URi8nTD8kjh-19" value="true" style="text;html=1;align=center;verticalAlign=middle;resizable=0;points=[];autosize=1;strokeColor=none;fillColor=none;" vertex="1" parent="1">
                    <mxGeometry x="580" y="3210" width="40" height="20" as="geometry"/>
                </mxCell>
                <mxCell id="uMAbDr4l1URi8nTD8kjh-20" value="false" style="text;html=1;align=center;verticalAlign=middle;resizable=0;points=[];autosize=1;strokeColor=none;fillColor=none;" vertex="1" parent="1">
                    <mxGeometry x="690" y="3130" width="40" height="20" as="geometry"/>
                </mxCell>
            </root>
        </mxGraphModel>
    </diagram>
    <diagram id="LEheWC4eN-GD8UhYLW2N" name="Display">
        <mxGraphModel dx="783" dy="777" grid="1" gridSize="10" guides="1" tooltips="1" connect="1" arrows="1" fold="1" page="1" pageScale="1" pageWidth="827" pageHeight="1169" math="0" shadow="0">
            <root>
                <mxCell id="0"/>
                <mxCell id="1" parent="0"/>
                <mxCell id="RF6-9ynq2-JLXYlrh4ni-4" value="" style="edgeStyle=orthogonalEdgeStyle;rounded=0;orthogonalLoop=1;jettySize=auto;html=1;" parent="1" source="RF6-9ynq2-JLXYlrh4ni-1" target="RF6-9ynq2-JLXYlrh4ni-2" edge="1">
                    <mxGeometry relative="1" as="geometry"/>
                </mxCell>
                <mxCell id="RF6-9ynq2-JLXYlrh4ni-1" value="display" style="rounded=1;whiteSpace=wrap;html=1;" parent="1" vertex="1">
                    <mxGeometry x="365" y="20" width="120" height="60" as="geometry"/>
                </mxCell>
                <mxCell id="RF6-9ynq2-JLXYlrh4ni-5" value="" style="edgeStyle=orthogonalEdgeStyle;rounded=0;orthogonalLoop=1;jettySize=auto;html=1;" parent="1" source="RF6-9ynq2-JLXYlrh4ni-2" target="RF6-9ynq2-JLXYlrh4ni-3" edge="1">
                    <mxGeometry relative="1" as="geometry"/>
                </mxCell>
                <mxCell id="RF6-9ynq2-JLXYlrh4ni-2" value="ifstream InFile" style="rounded=0;whiteSpace=wrap;html=1;" parent="1" vertex="1">
                    <mxGeometry x="365" y="120" width="120" height="60" as="geometry"/>
                </mxCell>
                <mxCell id="RF6-9ynq2-JLXYlrh4ni-7" value="" style="edgeStyle=orthogonalEdgeStyle;rounded=0;orthogonalLoop=1;jettySize=auto;html=1;" parent="1" source="RF6-9ynq2-JLXYlrh4ni-3" target="RF6-9ynq2-JLXYlrh4ni-6" edge="1">
                    <mxGeometry relative="1" as="geometry"/>
                </mxCell>
                <mxCell id="aCL4p5CiDLLLP1vWzJaB-6" style="edgeStyle=none;html=1;entryX=0.5;entryY=0;entryDx=0;entryDy=0;" edge="1" parent="1" source="RF6-9ynq2-JLXYlrh4ni-3" target="aCL4p5CiDLLLP1vWzJaB-3">
                    <mxGeometry relative="1" as="geometry">
                        <mxPoint x="230" y="570" as="targetPoint"/>
                        <Array as="points">
                            <mxPoint x="222" y="260"/>
                        </Array>
                    </mxGeometry>
                </mxCell>
                <mxCell id="RF6-9ynq2-JLXYlrh4ni-3" value="if InFile.is_open()" style="rhombus;whiteSpace=wrap;html=1;" parent="1" vertex="1">
                    <mxGeometry x="360" y="210" width="130" height="100" as="geometry"/>
                </mxCell>
                <mxCell id="RF6-9ynq2-JLXYlrh4ni-12" value="" style="edgeStyle=orthogonalEdgeStyle;rounded=0;orthogonalLoop=1;jettySize=auto;html=1;" parent="1" source="RF6-9ynq2-JLXYlrh4ni-6" target="RF6-9ynq2-JLXYlrh4ni-8" edge="1">
                    <mxGeometry relative="1" as="geometry"/>
                </mxCell>
                <mxCell id="RF6-9ynq2-JLXYlrh4ni-6" value="string ID, Product, interest, date, exdate" style="rounded=0;whiteSpace=wrap;html=1;" parent="1" vertex="1">
                    <mxGeometry x="308" y="350" width="235" height="60" as="geometry"/>
                </mxCell>
                <mxCell id="RF6-9ynq2-JLXYlrh4ni-13" value="" style="edgeStyle=orthogonalEdgeStyle;rounded=0;orthogonalLoop=1;jettySize=auto;html=1;" parent="1" source="RF6-9ynq2-JLXYlrh4ni-8" target="RF6-9ynq2-JLXYlrh4ni-9" edge="1">
                    <mxGeometry relative="1" as="geometry"/>
                </mxCell>
                <mxCell id="RF6-9ynq2-JLXYlrh4ni-8" value="string ln(58, '='" style="whiteSpace=wrap;html=1;" parent="1" vertex="1">
                    <mxGeometry x="365" y="450" width="120" height="60" as="geometry"/>
                </mxCell>
                <mxCell id="RF6-9ynq2-JLXYlrh4ni-15" value="" style="edgeStyle=orthogonalEdgeStyle;rounded=0;orthogonalLoop=1;jettySize=auto;html=1;" parent="1" source="RF6-9ynq2-JLXYlrh4ni-9" target="RF6-9ynq2-JLXYlrh4ni-14" edge="1">
                    <mxGeometry relative="1" as="geometry"/>
                </mxCell>
                <mxCell id="RF6-9ynq2-JLXYlrh4ni-9" value="string ln2(58, '-'" style="whiteSpace=wrap;html=1;" parent="1" vertex="1">
                    <mxGeometry x="365" y="550" width="120" height="60" as="geometry"/>
                </mxCell>
                <mxCell id="RF6-9ynq2-JLXYlrh4ni-17" value="" style="edgeStyle=orthogonalEdgeStyle;rounded=0;orthogonalLoop=1;jettySize=auto;html=1;" parent="1" source="RF6-9ynq2-JLXYlrh4ni-14" target="RF6-9ynq2-JLXYlrh4ni-16" edge="1">
                    <mxGeometry relative="1" as="geometry"/>
                </mxCell>
                <mxCell id="RF6-9ynq2-JLXYlrh4ni-14" value="int line = 1" style="rounded=0;whiteSpace=wrap;html=1;" parent="1" vertex="1">
                    <mxGeometry x="365.5" y="660" width="120" height="60" as="geometry"/>
                </mxCell>
                <mxCell id="RF6-9ynq2-JLXYlrh4ni-19" value="" style="edgeStyle=orthogonalEdgeStyle;rounded=0;orthogonalLoop=1;jettySize=auto;html=1;" parent="1" source="RF6-9ynq2-JLXYlrh4ni-16" target="RF6-9ynq2-JLXYlrh4ni-18" edge="1">
                    <mxGeometry relative="1" as="geometry"/>
                </mxCell>
                <mxCell id="RF6-9ynq2-JLXYlrh4ni-16" value="InFile &amp;gt;&amp;gt; ID &amp;gt;&amp;gt; Product &amp;gt;&amp;gt; Interest &amp;gt;&amp;gt; date &amp;gt;&amp;gt; exdate" style="rounded=0;whiteSpace=wrap;html=1;" parent="1" vertex="1">
                    <mxGeometry x="273" y="770" width="305" height="60" as="geometry"/>
                </mxCell>
                <mxCell id="RF6-9ynq2-JLXYlrh4ni-21" value="" style="edgeStyle=orthogonalEdgeStyle;rounded=0;orthogonalLoop=1;jettySize=auto;html=1;" parent="1" source="RF6-9ynq2-JLXYlrh4ni-18" target="RF6-9ynq2-JLXYlrh4ni-20" edge="1">
                    <mxGeometry relative="1" as="geometry"/>
                </mxCell>
                <mxCell id="RF6-9ynq2-JLXYlrh4ni-18" value="Write ID Product Interest date exdate" style="shape=parallelogram;perimeter=parallelogramPerimeter;whiteSpace=wrap;html=1;fixedSize=1;" parent="1" vertex="1">
                    <mxGeometry x="313" y="870" width="225" height="50" as="geometry"/>
                </mxCell>
                <mxCell id="RF6-9ynq2-JLXYlrh4ni-23" value="" style="edgeStyle=orthogonalEdgeStyle;rounded=0;orthogonalLoop=1;jettySize=auto;html=1;" parent="1" source="RF6-9ynq2-JLXYlrh4ni-20" target="RF6-9ynq2-JLXYlrh4ni-22" edge="1">
                    <mxGeometry relative="1" as="geometry"/>
                </mxCell>
                <mxCell id="aCL4p5CiDLLLP1vWzJaB-5" style="edgeStyle=none;html=1;" edge="1" parent="1" source="RF6-9ynq2-JLXYlrh4ni-20">
                    <mxGeometry relative="1" as="geometry">
                        <mxPoint x="240" y="1000" as="targetPoint"/>
                    </mxGeometry>
                </mxCell>
                <mxCell id="RF6-9ynq2-JLXYlrh4ni-20" value="while not InFile.eof" style="rhombus;whiteSpace=wrap;html=1;" parent="1" vertex="1">
                    <mxGeometry x="365" y="950" width="120" height="100" as="geometry"/>
                </mxCell>
                <mxCell id="RF6-9ynq2-JLXYlrh4ni-25" value="" style="edgeStyle=orthogonalEdgeStyle;rounded=0;orthogonalLoop=1;jettySize=auto;html=1;" parent="1" source="RF6-9ynq2-JLXYlrh4ni-22" target="RF6-9ynq2-JLXYlrh4ni-24" edge="1">
                    <mxGeometry relative="1" as="geometry"/>
                </mxCell>
                <mxCell id="RF6-9ynq2-JLXYlrh4ni-22" value="Write line ID Product interest date exdate" style="shape=parallelogram;perimeter=parallelogramPerimeter;whiteSpace=wrap;html=1;fixedSize=1;" parent="1" vertex="1">
                    <mxGeometry x="292" y="1100" width="267" height="60" as="geometry"/>
                </mxCell>
                <mxCell id="RF6-9ynq2-JLXYlrh4ni-32" value="" style="edgeStyle=orthogonalEdgeStyle;rounded=0;orthogonalLoop=1;jettySize=auto;html=1;" parent="1" source="RF6-9ynq2-JLXYlrh4ni-24" target="RF6-9ynq2-JLXYlrh4ni-31" edge="1">
                    <mxGeometry relative="1" as="geometry"/>
                </mxCell>
                <mxCell id="RF6-9ynq2-JLXYlrh4ni-24" value="InFile &amp;gt;&amp;gt; ID &amp;gt;&amp;gt; Product &amp;gt;&amp;gt; interest &amp;gt;&amp;gt; date &amp;gt;&amp;gt; exdate" style="rounded=0;whiteSpace=wrap;html=1;" parent="1" vertex="1">
                    <mxGeometry x="276.5" y="1210" width="298" height="60" as="geometry"/>
                </mxCell>
                <mxCell id="RF6-9ynq2-JLXYlrh4ni-26" value="End" style="rounded=1;whiteSpace=wrap;html=1;" parent="1" vertex="1">
                    <mxGeometry x="161.5" y="1054" width="120" height="60" as="geometry"/>
                </mxCell>
                <mxCell id="RF6-9ynq2-JLXYlrh4ni-31" value="line++" style="rounded=0;whiteSpace=wrap;html=1;" parent="1" vertex="1">
                    <mxGeometry x="365" y="1300" width="120" height="60" as="geometry"/>
                </mxCell>
                <mxCell id="RF6-9ynq2-JLXYlrh4ni-33" value="" style="endArrow=classic;html=1;rounded=0;exitX=0.5;exitY=1;exitDx=0;exitDy=0;entryX=1;entryY=0.5;entryDx=0;entryDy=0;" parent="1" source="RF6-9ynq2-JLXYlrh4ni-31" target="RF6-9ynq2-JLXYlrh4ni-20" edge="1">
                    <mxGeometry width="50" height="50" relative="1" as="geometry">
                        <mxPoint x="490" y="1300" as="sourcePoint"/>
                        <mxPoint x="640" y="1000" as="targetPoint"/>
                        <Array as="points">
                            <mxPoint x="425" y="1420"/>
                            <mxPoint x="640" y="1420"/>
                            <mxPoint x="640" y="1000"/>
                        </Array>
                    </mxGeometry>
                </mxCell>
                <mxCell id="aCL4p5CiDLLLP1vWzJaB-4" value="" style="edgeStyle=none;html=1;" edge="1" parent="1" source="aCL4p5CiDLLLP1vWzJaB-3" target="RF6-9ynq2-JLXYlrh4ni-26">
                    <mxGeometry relative="1" as="geometry"/>
                </mxCell>
                <mxCell id="aCL4p5CiDLLLP1vWzJaB-3" value="" style="ellipse;whiteSpace=wrap;html=1;aspect=fixed;" vertex="1" parent="1">
                    <mxGeometry x="200" y="978.5" width="43" height="43" as="geometry"/>
                </mxCell>
                <mxCell id="aCL4p5CiDLLLP1vWzJaB-7" value="false" style="text;html=1;align=center;verticalAlign=middle;resizable=0;points=[];autosize=1;strokeColor=none;fillColor=none;" vertex="1" parent="1">
                    <mxGeometry x="330" y="230" width="40" height="20" as="geometry"/>
                </mxCell>
                <mxCell id="aCL4p5CiDLLLP1vWzJaB-8" value="true" style="text;html=1;align=center;verticalAlign=middle;resizable=0;points=[];autosize=1;strokeColor=none;fillColor=none;" vertex="1" parent="1">
                    <mxGeometry x="420" y="310" width="40" height="20" as="geometry"/>
                </mxCell>
                <mxCell id="aCL4p5CiDLLLP1vWzJaB-9" value="true" style="text;html=1;align=center;verticalAlign=middle;resizable=0;points=[];autosize=1;strokeColor=none;fillColor=none;" vertex="1" parent="1">
                    <mxGeometry x="430" y="1060" width="40" height="20" as="geometry"/>
                </mxCell>
                <mxCell id="aCL4p5CiDLLLP1vWzJaB-10" value="false" style="text;html=1;align=center;verticalAlign=middle;resizable=0;points=[];autosize=1;strokeColor=none;fillColor=none;" vertex="1" parent="1">
                    <mxGeometry x="330" y="980" width="40" height="20" as="geometry"/>
                </mxCell>
            </root>
        </mxGraphModel>
    </diagram>
    <diagram id="hbfQHrzsT1jzPIPg5JES" name="search">
        <mxGraphModel dx="1806" dy="971" grid="1" gridSize="10" guides="1" tooltips="1" connect="1" arrows="1" fold="1" page="1" pageScale="1" pageWidth="827" pageHeight="1169" math="0" shadow="0">
            <root>
                <mxCell id="0"/>
                <mxCell id="1" parent="0"/>
                <mxCell id="U4VI47XLX7BtKzF0pruG-3" value="" style="edgeStyle=orthogonalEdgeStyle;rounded=0;orthogonalLoop=1;jettySize=auto;html=1;" parent="1" source="U4VI47XLX7BtKzF0pruG-1" target="U4VI47XLX7BtKzF0pruG-2" edge="1">
                    <mxGeometry relative="1" as="geometry"/>
                </mxCell>
                <mxCell id="U4VI47XLX7BtKzF0pruG-1" value="search" style="rounded=1;whiteSpace=wrap;html=1;" parent="1" vertex="1">
                    <mxGeometry x="110" y="20" width="120" height="60" as="geometry"/>
                </mxCell>
                <mxCell id="U4VI47XLX7BtKzF0pruG-5" value="" style="edgeStyle=orthogonalEdgeStyle;rounded=0;orthogonalLoop=1;jettySize=auto;html=1;" parent="1" source="U4VI47XLX7BtKzF0pruG-2" target="U4VI47XLX7BtKzF0pruG-4" edge="1">
                    <mxGeometry relative="1" as="geometry"/>
                </mxCell>
                <mxCell id="U4VI47XLX7BtKzF0pruG-2" value="ifstream InFile" style="rounded=0;whiteSpace=wrap;html=1;" parent="1" vertex="1">
                    <mxGeometry x="110" y="130" width="120" height="60" as="geometry"/>
                </mxCell>
                <mxCell id="U4VI47XLX7BtKzF0pruG-7" value="" style="edgeStyle=orthogonalEdgeStyle;rounded=0;orthogonalLoop=1;jettySize=auto;html=1;" parent="1" source="U4VI47XLX7BtKzF0pruG-4" target="U4VI47XLX7BtKzF0pruG-6" edge="1">
                    <mxGeometry relative="1" as="geometry"/>
                </mxCell>
                <mxCell id="U4VI47XLX7BtKzF0pruG-4" value="string find" style="rounded=0;whiteSpace=wrap;html=1;" parent="1" vertex="1">
                    <mxGeometry x="110" y="210" width="120" height="60" as="geometry"/>
                </mxCell>
                <mxCell id="U4VI47XLX7BtKzF0pruG-9" value="" style="edgeStyle=orthogonalEdgeStyle;rounded=0;orthogonalLoop=1;jettySize=auto;html=1;" parent="1" source="U4VI47XLX7BtKzF0pruG-6" target="U4VI47XLX7BtKzF0pruG-8" edge="1">
                    <mxGeometry relative="1" as="geometry"/>
                </mxCell>
                <mxCell id="U4VI47XLX7BtKzF0pruG-6" value="Write Input ID to search :" style="shape=parallelogram;perimeter=parallelogramPerimeter;whiteSpace=wrap;html=1;fixedSize=1;" parent="1" vertex="1">
                    <mxGeometry x="75" y="300" width="190" height="60" as="geometry"/>
                </mxCell>
                <mxCell id="cgTY0CexeOsMsfpDaPHr-2" value="" style="edgeStyle=orthogonalEdgeStyle;rounded=0;orthogonalLoop=1;jettySize=auto;html=1;" parent="1" source="U4VI47XLX7BtKzF0pruG-8" target="cgTY0CexeOsMsfpDaPHr-1" edge="1">
                    <mxGeometry relative="1" as="geometry"/>
                </mxCell>
                <mxCell id="U4VI47XLX7BtKzF0pruG-8" value="Read find" style="shape=parallelogram;perimeter=parallelogramPerimeter;whiteSpace=wrap;html=1;fixedSize=1;" parent="1" vertex="1">
                    <mxGeometry x="110" y="400" width="120" height="60" as="geometry"/>
                </mxCell>
                <mxCell id="aDjpLfZV9KNCMRSHhIuK-25" value="" style="edgeStyle=orthogonalEdgeStyle;rounded=0;orthogonalLoop=1;jettySize=auto;html=1;" parent="1" source="cgTY0CexeOsMsfpDaPHr-1" target="aDjpLfZV9KNCMRSHhIuK-3" edge="1">
                    <mxGeometry relative="1" as="geometry"/>
                </mxCell>
                <mxCell id="YWR1ntq4fqy8WzPI8pip-4" style="edgeStyle=none;html=1;entryX=0.5;entryY=0;entryDx=0;entryDy=0;" edge="1" parent="1" source="cgTY0CexeOsMsfpDaPHr-1" target="YWR1ntq4fqy8WzPI8pip-1">
                    <mxGeometry relative="1" as="geometry">
                        <Array as="points">
                            <mxPoint x="-42" y="570"/>
                        </Array>
                    </mxGeometry>
                </mxCell>
                <mxCell id="cgTY0CexeOsMsfpDaPHr-1" value="if InFile.is_open()" style="rhombus;whiteSpace=wrap;html=1;" parent="1" vertex="1">
                    <mxGeometry x="105" y="520" width="130" height="100" as="geometry"/>
                </mxCell>
                <mxCell id="aDjpLfZV9KNCMRSHhIuK-2" value="" style="edgeStyle=orthogonalEdgeStyle;rounded=0;orthogonalLoop=1;jettySize=auto;html=1;" parent="1" source="aDjpLfZV9KNCMRSHhIuK-3" target="aDjpLfZV9KNCMRSHhIuK-5" edge="1">
                    <mxGeometry relative="1" as="geometry"/>
                </mxCell>
                <mxCell id="aDjpLfZV9KNCMRSHhIuK-3" value="string ID, Product, interest, date, exdate" style="rounded=0;whiteSpace=wrap;html=1;" parent="1" vertex="1">
                    <mxGeometry x="52.5" y="700" width="235" height="60" as="geometry"/>
                </mxCell>
                <mxCell id="aDjpLfZV9KNCMRSHhIuK-4" value="" style="edgeStyle=orthogonalEdgeStyle;rounded=0;orthogonalLoop=1;jettySize=auto;html=1;" parent="1" source="aDjpLfZV9KNCMRSHhIuK-5" target="aDjpLfZV9KNCMRSHhIuK-7" edge="1">
                    <mxGeometry relative="1" as="geometry"/>
                </mxCell>
                <mxCell id="aDjpLfZV9KNCMRSHhIuK-5" value="string ln(58, '='" style="whiteSpace=wrap;html=1;" parent="1" vertex="1">
                    <mxGeometry x="110" y="800" width="120" height="60" as="geometry"/>
                </mxCell>
                <mxCell id="aDjpLfZV9KNCMRSHhIuK-6" value="" style="edgeStyle=orthogonalEdgeStyle;rounded=0;orthogonalLoop=1;jettySize=auto;html=1;" parent="1" source="aDjpLfZV9KNCMRSHhIuK-7" target="aDjpLfZV9KNCMRSHhIuK-9" edge="1">
                    <mxGeometry relative="1" as="geometry"/>
                </mxCell>
                <mxCell id="aDjpLfZV9KNCMRSHhIuK-7" value="string ln2(58, '-'" style="whiteSpace=wrap;html=1;" parent="1" vertex="1">
                    <mxGeometry x="110" y="900" width="120" height="60" as="geometry"/>
                </mxCell>
                <mxCell id="aDjpLfZV9KNCMRSHhIuK-8" value="" style="edgeStyle=orthogonalEdgeStyle;rounded=0;orthogonalLoop=1;jettySize=auto;html=1;" parent="1" source="aDjpLfZV9KNCMRSHhIuK-9" target="aDjpLfZV9KNCMRSHhIuK-11" edge="1">
                    <mxGeometry relative="1" as="geometry"/>
                </mxCell>
                <mxCell id="aDjpLfZV9KNCMRSHhIuK-9" value="int line = 1" style="rounded=0;whiteSpace=wrap;html=1;" parent="1" vertex="1">
                    <mxGeometry x="110.5" y="1010" width="120" height="60" as="geometry"/>
                </mxCell>
                <mxCell id="aDjpLfZV9KNCMRSHhIuK-10" value="" style="edgeStyle=orthogonalEdgeStyle;rounded=0;orthogonalLoop=1;jettySize=auto;html=1;" parent="1" source="aDjpLfZV9KNCMRSHhIuK-11" target="aDjpLfZV9KNCMRSHhIuK-13" edge="1">
                    <mxGeometry relative="1" as="geometry"/>
                </mxCell>
                <mxCell id="aDjpLfZV9KNCMRSHhIuK-11" value="InFile &amp;gt;&amp;gt; ID &amp;gt;&amp;gt; Product &amp;gt;&amp;gt; Interest &amp;gt;&amp;gt; date &amp;gt;&amp;gt; exdate" style="rounded=0;whiteSpace=wrap;html=1;" parent="1" vertex="1">
                    <mxGeometry x="18" y="1120" width="305" height="60" as="geometry"/>
                </mxCell>
                <mxCell id="aDjpLfZV9KNCMRSHhIuK-12" value="" style="edgeStyle=orthogonalEdgeStyle;rounded=0;orthogonalLoop=1;jettySize=auto;html=1;" parent="1" source="aDjpLfZV9KNCMRSHhIuK-13" target="aDjpLfZV9KNCMRSHhIuK-16" edge="1">
                    <mxGeometry relative="1" as="geometry"/>
                </mxCell>
                <mxCell id="aDjpLfZV9KNCMRSHhIuK-13" value="Write ID Product Interest date exdate" style="shape=parallelogram;perimeter=parallelogramPerimeter;whiteSpace=wrap;html=1;fixedSize=1;" parent="1" vertex="1">
                    <mxGeometry x="58" y="1220" width="225" height="50" as="geometry"/>
                </mxCell>
                <mxCell id="aDjpLfZV9KNCMRSHhIuK-14" value="" style="edgeStyle=orthogonalEdgeStyle;rounded=0;orthogonalLoop=1;jettySize=auto;html=1;" parent="1" source="aDjpLfZV9KNCMRSHhIuK-16" target="aDjpLfZV9KNCMRSHhIuK-18" edge="1">
                    <mxGeometry relative="1" as="geometry"/>
                </mxCell>
                <mxCell id="YWR1ntq4fqy8WzPI8pip-2" style="edgeStyle=none;html=1;entryX=1;entryY=0.5;entryDx=0;entryDy=0;" edge="1" parent="1" source="aDjpLfZV9KNCMRSHhIuK-16" target="YWR1ntq4fqy8WzPI8pip-1">
                    <mxGeometry relative="1" as="geometry"/>
                </mxCell>
                <mxCell id="aDjpLfZV9KNCMRSHhIuK-16" value="while not InFile.eof" style="rhombus;whiteSpace=wrap;html=1;" parent="1" vertex="1">
                    <mxGeometry x="110" y="1300" width="120" height="100" as="geometry"/>
                </mxCell>
                <mxCell id="aDjpLfZV9KNCMRSHhIuK-17" value="" style="edgeStyle=orthogonalEdgeStyle;rounded=0;orthogonalLoop=1;jettySize=auto;html=1;" parent="1" source="aDjpLfZV9KNCMRSHhIuK-18" target="aDjpLfZV9KNCMRSHhIuK-20" edge="1">
                    <mxGeometry relative="1" as="geometry"/>
                </mxCell>
                <mxCell id="aDjpLfZV9KNCMRSHhIuK-18" value="Write line ID Product interest date exdate" style="shape=parallelogram;perimeter=parallelogramPerimeter;whiteSpace=wrap;html=1;fixedSize=1;" parent="1" vertex="1">
                    <mxGeometry x="37" y="1450" width="267" height="60" as="geometry"/>
                </mxCell>
                <mxCell id="aDjpLfZV9KNCMRSHhIuK-27" value="" style="edgeStyle=orthogonalEdgeStyle;rounded=0;orthogonalLoop=1;jettySize=auto;html=1;" parent="1" source="aDjpLfZV9KNCMRSHhIuK-20" target="aDjpLfZV9KNCMRSHhIuK-22" edge="1">
                    <mxGeometry relative="1" as="geometry"/>
                </mxCell>
                <mxCell id="aDjpLfZV9KNCMRSHhIuK-20" value="InFile &amp;gt;&amp;gt; ID &amp;gt;&amp;gt; Product &amp;gt;&amp;gt; interest &amp;gt;&amp;gt; date &amp;gt;&amp;gt; exdate" style="rounded=0;whiteSpace=wrap;html=1;" parent="1" vertex="1">
                    <mxGeometry x="21.5" y="1560" width="298" height="60" as="geometry"/>
                </mxCell>
                <mxCell id="aDjpLfZV9KNCMRSHhIuK-21" value="End" style="rounded=1;whiteSpace=wrap;html=1;" parent="1" vertex="1">
                    <mxGeometry x="-102" y="1415" width="120" height="60" as="geometry"/>
                </mxCell>
                <mxCell id="aDjpLfZV9KNCMRSHhIuK-22" value="line++" style="rounded=0;whiteSpace=wrap;html=1;" parent="1" vertex="1">
                    <mxGeometry x="110" y="1660" width="120" height="60" as="geometry"/>
                </mxCell>
                <mxCell id="aDjpLfZV9KNCMRSHhIuK-23" value="" style="endArrow=classic;html=1;rounded=0;exitX=0.5;exitY=1;exitDx=0;exitDy=0;entryX=1;entryY=0.5;entryDx=0;entryDy=0;" parent="1" source="aDjpLfZV9KNCMRSHhIuK-22" target="aDjpLfZV9KNCMRSHhIuK-16" edge="1">
                    <mxGeometry width="50" height="50" relative="1" as="geometry">
                        <mxPoint x="235" y="1620" as="sourcePoint"/>
                        <mxPoint x="385" y="1320" as="targetPoint"/>
                        <Array as="points">
                            <mxPoint x="170" y="1740"/>
                            <mxPoint x="385" y="1740"/>
                            <mxPoint x="390" y="1350"/>
                        </Array>
                    </mxGeometry>
                </mxCell>
                <mxCell id="YWR1ntq4fqy8WzPI8pip-3" value="" style="edgeStyle=none;html=1;" edge="1" parent="1" source="YWR1ntq4fqy8WzPI8pip-1" target="aDjpLfZV9KNCMRSHhIuK-21">
                    <mxGeometry relative="1" as="geometry"/>
                </mxCell>
                <mxCell id="YWR1ntq4fqy8WzPI8pip-1" value="" style="ellipse;whiteSpace=wrap;html=1;aspect=fixed;" vertex="1" parent="1">
                    <mxGeometry x="-71" y="1321" width="58" height="58" as="geometry"/>
                </mxCell>
                <mxCell id="YWR1ntq4fqy8WzPI8pip-5" value="false" style="text;html=1;align=center;verticalAlign=middle;resizable=0;points=[];autosize=1;strokeColor=none;fillColor=none;" vertex="1" parent="1">
                    <mxGeometry x="60" y="540" width="40" height="20" as="geometry"/>
                </mxCell>
                <mxCell id="YWR1ntq4fqy8WzPI8pip-6" value="true" style="text;html=1;align=center;verticalAlign=middle;resizable=0;points=[];autosize=1;strokeColor=none;fillColor=none;" vertex="1" parent="1">
                    <mxGeometry x="170" y="620" width="40" height="20" as="geometry"/>
                </mxCell>
                <mxCell id="YWR1ntq4fqy8WzPI8pip-7" value="true" style="text;html=1;align=center;verticalAlign=middle;resizable=0;points=[];autosize=1;strokeColor=none;fillColor=none;" vertex="1" parent="1">
                    <mxGeometry x="170" y="1400" width="40" height="20" as="geometry"/>
                </mxCell>
                <mxCell id="YWR1ntq4fqy8WzPI8pip-8" value="false" style="text;html=1;align=center;verticalAlign=middle;resizable=0;points=[];autosize=1;strokeColor=none;fillColor=none;" vertex="1" parent="1">
                    <mxGeometry x="80" y="1320" width="40" height="20" as="geometry"/>
                </mxCell>
            </root>
        </mxGraphModel>
    </diagram>
    <diagram id="g7cwCHJkT9B0G09Qg35l" name="delinput">
        <mxGraphModel dx="783" dy="777" grid="1" gridSize="10" guides="1" tooltips="1" connect="1" arrows="1" fold="1" page="1" pageScale="1" pageWidth="827" pageHeight="1169" math="0" shadow="0">
            <root>
                <mxCell id="0"/>
                <mxCell id="1" parent="0"/>
                <mxCell id="ZoYnK_F27beXlok23A8j-5" value="" style="edgeStyle=orthogonalEdgeStyle;rounded=0;orthogonalLoop=1;jettySize=auto;html=1;" parent="1" source="ZoYnK_F27beXlok23A8j-1" target="ZoYnK_F27beXlok23A8j-2" edge="1">
                    <mxGeometry relative="1" as="geometry"/>
                </mxCell>
                <mxCell id="ZoYnK_F27beXlok23A8j-1" value="delinput" style="rounded=1;whiteSpace=wrap;html=1;" parent="1" vertex="1">
                    <mxGeometry x="150" y="40" width="120" height="60" as="geometry"/>
                </mxCell>
                <mxCell id="ZoYnK_F27beXlok23A8j-6" value="" style="edgeStyle=orthogonalEdgeStyle;rounded=0;orthogonalLoop=1;jettySize=auto;html=1;" parent="1" source="ZoYnK_F27beXlok23A8j-2" target="ZoYnK_F27beXlok23A8j-3" edge="1">
                    <mxGeometry relative="1" as="geometry"/>
                </mxCell>
                <mxCell id="ZoYnK_F27beXlok23A8j-2" value="int line" style="rounded=0;whiteSpace=wrap;html=1;" parent="1" vertex="1">
                    <mxGeometry x="150" y="140" width="120" height="60" as="geometry"/>
                </mxCell>
                <mxCell id="ZoYnK_F27beXlok23A8j-7" value="" style="edgeStyle=orthogonalEdgeStyle;rounded=0;orthogonalLoop=1;jettySize=auto;html=1;" parent="1" source="ZoYnK_F27beXlok23A8j-3" target="ZoYnK_F27beXlok23A8j-4" edge="1">
                    <mxGeometry relative="1" as="geometry"/>
                </mxCell>
                <mxCell id="ZoYnK_F27beXlok23A8j-3" value="Write Which line do you want to remove :" style="shape=parallelogram;perimeter=parallelogramPerimeter;whiteSpace=wrap;html=1;fixedSize=1;" parent="1" vertex="1">
                    <mxGeometry x="65" y="240" width="290" height="70" as="geometry"/>
                </mxCell>
                <mxCell id="ZoYnK_F27beXlok23A8j-9" value="" style="edgeStyle=orthogonalEdgeStyle;rounded=0;orthogonalLoop=1;jettySize=auto;html=1;" parent="1" source="ZoYnK_F27beXlok23A8j-4" target="ZoYnK_F27beXlok23A8j-8" edge="1">
                    <mxGeometry relative="1" as="geometry"/>
                </mxCell>
                <mxCell id="ZoYnK_F27beXlok23A8j-4" value="Read line" style="shape=parallelogram;perimeter=parallelogramPerimeter;whiteSpace=wrap;html=1;fixedSize=1;" parent="1" vertex="1">
                    <mxGeometry x="150" y="350" width="120" height="60" as="geometry"/>
                </mxCell>
                <mxCell id="ZoYnK_F27beXlok23A8j-11" value="" style="edgeStyle=orthogonalEdgeStyle;rounded=0;orthogonalLoop=1;jettySize=auto;html=1;" parent="1" source="ZoYnK_F27beXlok23A8j-8" target="ZoYnK_F27beXlok23A8j-10" edge="1">
                    <mxGeometry relative="1" as="geometry"/>
                </mxCell>
                <mxCell id="ZoYnK_F27beXlok23A8j-8" value="del" style="shape=process;whiteSpace=wrap;html=1;backgroundOutline=1;" parent="1" vertex="1">
                    <mxGeometry x="150" y="460" width="120" height="60" as="geometry"/>
                </mxCell>
                <mxCell id="ZoYnK_F27beXlok23A8j-10" value="End" style="rounded=1;whiteSpace=wrap;html=1;" parent="1" vertex="1">
                    <mxGeometry x="150" y="570" width="120" height="60" as="geometry"/>
                </mxCell>
            </root>
        </mxGraphModel>
    </diagram>
    <diagram id="Se8MFtX8mOm38D3AovTk" name="Del">
        <mxGraphModel dx="979" dy="971" grid="1" gridSize="10" guides="1" tooltips="1" connect="1" arrows="1" fold="1" page="1" pageScale="1" pageWidth="850" pageHeight="1100" math="0" shadow="0">
            <root>
                <mxCell id="0"/>
                <mxCell id="1" parent="0"/>
                <mxCell id="ETxG6V_gQm7ipwRPlspY-4" value="" style="edgeStyle=orthogonalEdgeStyle;rounded=0;orthogonalLoop=1;jettySize=auto;html=1;" parent="1" source="ETxG6V_gQm7ipwRPlspY-1" target="ETxG6V_gQm7ipwRPlspY-2" edge="1">
                    <mxGeometry relative="1" as="geometry"/>
                </mxCell>
                <mxCell id="ETxG6V_gQm7ipwRPlspY-1" value="del" style="rounded=1;whiteSpace=wrap;html=1;" parent="1" vertex="1">
                    <mxGeometry x="120" y="30" width="120" height="60" as="geometry"/>
                </mxCell>
                <mxCell id="ETxG6V_gQm7ipwRPlspY-5" value="" style="edgeStyle=orthogonalEdgeStyle;rounded=0;orthogonalLoop=1;jettySize=auto;html=1;" parent="1" source="ETxG6V_gQm7ipwRPlspY-2" target="ETxG6V_gQm7ipwRPlspY-3" edge="1">
                    <mxGeometry relative="1" as="geometry"/>
                </mxCell>
                <mxCell id="ETxG6V_gQm7ipwRPlspY-2" value="ifstream file(filename)" style="rounded=0;whiteSpace=wrap;html=1;" parent="1" vertex="1">
                    <mxGeometry x="95" y="150" width="170" height="60" as="geometry"/>
                </mxCell>
                <mxCell id="ETxG6V_gQm7ipwRPlspY-7" value="" style="edgeStyle=orthogonalEdgeStyle;rounded=0;orthogonalLoop=1;jettySize=auto;html=1;" parent="1" source="ETxG6V_gQm7ipwRPlspY-3" target="ETxG6V_gQm7ipwRPlspY-6" edge="1">
                    <mxGeometry relative="1" as="geometry"/>
                </mxCell>
                <mxCell id="ETxG6V_gQm7ipwRPlspY-3" value="ofstream temp" style="rounded=0;whiteSpace=wrap;html=1;" parent="1" vertex="1">
                    <mxGeometry x="120" y="250" width="120" height="60" as="geometry"/>
                </mxCell>
                <mxCell id="ETxG6V_gQm7ipwRPlspY-9" value="" style="edgeStyle=orthogonalEdgeStyle;rounded=0;orthogonalLoop=1;jettySize=auto;html=1;" parent="1" source="ETxG6V_gQm7ipwRPlspY-6" target="ETxG6V_gQm7ipwRPlspY-8" edge="1">
                    <mxGeometry relative="1" as="geometry"/>
                </mxCell>
                <mxCell id="ETxG6V_gQm7ipwRPlspY-6" value="char c" style="whiteSpace=wrap;html=1;" parent="1" vertex="1">
                    <mxGeometry x="120" y="350" width="120" height="60" as="geometry"/>
                </mxCell>
                <mxCell id="ETxG6V_gQm7ipwRPlspY-11" value="" style="edgeStyle=orthogonalEdgeStyle;rounded=0;orthogonalLoop=1;jettySize=auto;html=1;" parent="1" source="ETxG6V_gQm7ipwRPlspY-8" target="ETxG6V_gQm7ipwRPlspY-10" edge="1">
                    <mxGeometry relative="1" as="geometry"/>
                </mxCell>
                <mxCell id="ETxG6V_gQm7ipwRPlspY-8" value="int line = 1" style="rounded=0;whiteSpace=wrap;html=1;" parent="1" vertex="1">
                    <mxGeometry x="120" y="450" width="120" height="60" as="geometry"/>
                </mxCell>
                <mxCell id="ETxG6V_gQm7ipwRPlspY-14" value="" style="edgeStyle=orthogonalEdgeStyle;rounded=0;orthogonalLoop=1;jettySize=auto;html=1;" parent="1" source="ETxG6V_gQm7ipwRPlspY-10" target="ETxG6V_gQm7ipwRPlspY-12" edge="1">
                    <mxGeometry relative="1" as="geometry"/>
                </mxCell>
                <mxCell id="OGBfwFavMpYCRg03TVl0-1" style="edgeStyle=none;html=1;" edge="1" parent="1" source="ETxG6V_gQm7ipwRPlspY-10">
                    <mxGeometry relative="1" as="geometry">
                        <mxPoint x="180" y="1190" as="targetPoint"/>
                        <Array as="points">
                            <mxPoint x="580" y="620"/>
                            <mxPoint x="580" y="1190"/>
                        </Array>
                    </mxGeometry>
                </mxCell>
                <mxCell id="ETxG6V_gQm7ipwRPlspY-10" value="while (file.get(c))" style="rhombus;whiteSpace=wrap;html=1;" parent="1" vertex="1">
                    <mxGeometry x="120" y="570" width="120" height="100" as="geometry"/>
                </mxCell>
                <mxCell id="ETxG6V_gQm7ipwRPlspY-15" value="" style="edgeStyle=orthogonalEdgeStyle;rounded=0;orthogonalLoop=1;jettySize=auto;html=1;" parent="1" source="ETxG6V_gQm7ipwRPlspY-12" target="ETxG6V_gQm7ipwRPlspY-13" edge="1">
                    <mxGeometry relative="1" as="geometry"/>
                </mxCell>
                <mxCell id="ETxG6V_gQm7ipwRPlspY-17" value="" style="edgeStyle=orthogonalEdgeStyle;rounded=0;orthogonalLoop=1;jettySize=auto;html=1;" parent="1" source="ETxG6V_gQm7ipwRPlspY-12" target="ETxG6V_gQm7ipwRPlspY-16" edge="1">
                    <mxGeometry relative="1" as="geometry"/>
                </mxCell>
                <mxCell id="ETxG6V_gQm7ipwRPlspY-12" value="if c == 'n'" style="rhombus;whiteSpace=wrap;html=1;" parent="1" vertex="1">
                    <mxGeometry x="125" y="720" width="110" height="100" as="geometry"/>
                </mxCell>
                <mxCell id="ETxG6V_gQm7ipwRPlspY-13" value="line++" style="rounded=0;whiteSpace=wrap;html=1;" parent="1" vertex="1">
                    <mxGeometry x="290" y="740" width="120" height="60" as="geometry"/>
                </mxCell>
                <mxCell id="ETxG6V_gQm7ipwRPlspY-19" value="" style="edgeStyle=orthogonalEdgeStyle;rounded=0;orthogonalLoop=1;jettySize=auto;html=1;" parent="1" source="ETxG6V_gQm7ipwRPlspY-16" target="ETxG6V_gQm7ipwRPlspY-18" edge="1">
                    <mxGeometry relative="1" as="geometry"/>
                </mxCell>
                <mxCell id="ETxG6V_gQm7ipwRPlspY-23" value="" style="edgeStyle=orthogonalEdgeStyle;rounded=0;orthogonalLoop=1;jettySize=auto;html=1;" parent="1" source="ETxG6V_gQm7ipwRPlspY-16" target="ETxG6V_gQm7ipwRPlspY-22" edge="1">
                    <mxGeometry relative="1" as="geometry"/>
                </mxCell>
                <mxCell id="ETxG6V_gQm7ipwRPlspY-16" value="if line != n" style="rhombus;whiteSpace=wrap;html=1;" parent="1" vertex="1">
                    <mxGeometry x="125" y="870" width="110" height="90" as="geometry"/>
                </mxCell>
                <mxCell id="ETxG6V_gQm7ipwRPlspY-18" value="temp &amp;lt;&amp;lt; c" style="rounded=0;whiteSpace=wrap;html=1;" parent="1" vertex="1">
                    <mxGeometry x="290" y="885" width="120" height="60" as="geometry"/>
                </mxCell>
                <mxCell id="ETxG6V_gQm7ipwRPlspY-21" value="" style="endArrow=classic;html=1;rounded=0;exitX=0.5;exitY=1;exitDx=0;exitDy=0;" parent="1" source="ETxG6V_gQm7ipwRPlspY-13" edge="1">
                    <mxGeometry width="50" height="50" relative="1" as="geometry">
                        <mxPoint x="220" y="970" as="sourcePoint"/>
                        <mxPoint x="180" y="840" as="targetPoint"/>
                        <Array as="points">
                            <mxPoint x="350" y="840"/>
                        </Array>
                    </mxGeometry>
                </mxCell>
                <mxCell id="ETxG6V_gQm7ipwRPlspY-26" value="" style="edgeStyle=orthogonalEdgeStyle;rounded=0;orthogonalLoop=1;jettySize=auto;html=1;" parent="1" source="ETxG6V_gQm7ipwRPlspY-22" target="ETxG6V_gQm7ipwRPlspY-24" edge="1">
                    <mxGeometry relative="1" as="geometry"/>
                </mxCell>
                <mxCell id="ETxG6V_gQm7ipwRPlspY-22" value="remove(filename)" style="rounded=0;whiteSpace=wrap;html=1;" parent="1" vertex="1">
                    <mxGeometry x="120" y="1010" width="120" height="60" as="geometry"/>
                </mxCell>
                <mxCell id="ETxG6V_gQm7ipwRPlspY-29" value="" style="edgeStyle=orthogonalEdgeStyle;rounded=0;orthogonalLoop=1;jettySize=auto;html=1;" parent="1" source="ETxG6V_gQm7ipwRPlspY-24" target="ETxG6V_gQm7ipwRPlspY-28" edge="1">
                    <mxGeometry relative="1" as="geometry"/>
                </mxCell>
                <mxCell id="ETxG6V_gQm7ipwRPlspY-24" value="remove(&quot;temp.txt&quot;, file name)" style="rounded=0;whiteSpace=wrap;html=1;" parent="1" vertex="1">
                    <mxGeometry x="90" y="1110" width="180" height="60" as="geometry"/>
                </mxCell>
                <mxCell id="ETxG6V_gQm7ipwRPlspY-27" value="" style="endArrow=classic;html=1;rounded=0;exitX=0.5;exitY=1;exitDx=0;exitDy=0;" parent="1" source="ETxG6V_gQm7ipwRPlspY-18" edge="1">
                    <mxGeometry width="50" height="50" relative="1" as="geometry">
                        <mxPoint x="220" y="1200" as="sourcePoint"/>
                        <mxPoint x="180" y="980" as="targetPoint"/>
                        <Array as="points">
                            <mxPoint x="350" y="980"/>
                        </Array>
                    </mxGeometry>
                </mxCell>
                <mxCell id="ETxG6V_gQm7ipwRPlspY-28" value="End" style="rounded=1;whiteSpace=wrap;html=1;" parent="1" vertex="1">
                    <mxGeometry x="120" y="1220" width="120" height="60" as="geometry"/>
                </mxCell>
                <mxCell id="OGBfwFavMpYCRg03TVl0-2" value="true" style="text;html=1;align=center;verticalAlign=middle;resizable=0;points=[];autosize=1;strokeColor=none;fillColor=none;" vertex="1" parent="1">
                    <mxGeometry x="180" y="670" width="40" height="20" as="geometry"/>
                </mxCell>
                <mxCell id="OGBfwFavMpYCRg03TVl0-3" value="false" style="text;html=1;align=center;verticalAlign=middle;resizable=0;points=[];autosize=1;strokeColor=none;fillColor=none;" vertex="1" parent="1">
                    <mxGeometry x="240" y="590" width="40" height="20" as="geometry"/>
                </mxCell>
                <mxCell id="OGBfwFavMpYCRg03TVl0-4" value="true" style="text;html=1;align=center;verticalAlign=middle;resizable=0;points=[];autosize=1;strokeColor=none;fillColor=none;" vertex="1" parent="1">
                    <mxGeometry x="223" y="739" width="40" height="20" as="geometry"/>
                </mxCell>
                <mxCell id="OGBfwFavMpYCRg03TVl0-5" value="false" style="text;html=1;align=center;verticalAlign=middle;resizable=0;points=[];autosize=1;strokeColor=none;fillColor=none;" vertex="1" parent="1">
                    <mxGeometry x="140" y="820" width="40" height="20" as="geometry"/>
                </mxCell>
                <mxCell id="OGBfwFavMpYCRg03TVl0-6" value="true" style="text;html=1;align=center;verticalAlign=middle;resizable=0;points=[];autosize=1;strokeColor=none;fillColor=none;" vertex="1" parent="1">
                    <mxGeometry x="224" y="895" width="40" height="20" as="geometry"/>
                </mxCell>
                <mxCell id="OGBfwFavMpYCRg03TVl0-7" value="false" style="text;html=1;align=center;verticalAlign=middle;resizable=0;points=[];autosize=1;strokeColor=none;fillColor=none;" vertex="1" parent="1">
                    <mxGeometry x="140" y="960" width="40" height="20" as="geometry"/>
                </mxCell>
            </root>
        </mxGraphModel>
    </diagram>
</mxfile>